<svg data-v-423bf9ae="" xmlns="http://www.w3.org/2000/svg" viewBox="0 0 509 90" class="iconLeftSlogan"><!----><!----><!----><g data-v-423bf9ae="" id="3d239194-5d11-479f-9165-3056cdb2701c" fill="#000000" transform="matrix(4.64396282087413,0,0,4.64396282087413,107.44581928699668,-34.50464248506857)"><path d="M6.77 15.03L10.64 7.43L12.08 7.43L12.08 7.59L12.08 7.59Q11.92 7.68 11.83 7.89L11.83 7.89L11.83 7.89Q11.75 8.09 11.74 8.27L11.74 8.27L11.74 8.27Q11.73 8.44 11.73 8.81L11.73 8.81L11.73 8.81Q11.73 8.89 11.73 8.93L11.73 8.93L11.73 8.93Q11.73 11.07 11.77 12.59L11.77 12.59L11.77 12.59Q11.82 14.11 11.98 15.66L11.98 15.66L11.98 15.66Q12.02 15.98 12.24 16.21L12.24 16.21L12.24 16.21Q12.46 16.45 12.80 16.45L12.80 16.45L12.80 16.45Q12.82 16.45 13.58 16.37L13.58 16.37L13.58 16.70L13.58 16.70Q12.30 17.17 11.68 17.17L11.68 17.17L11.68 17.17Q11.31 17.17 11.05 17.06L11.05 17.06L11.05 17.06Q10.79 16.94 10.79 16.69L10.79 16.69L10.79 14.14L10.79 14.14Q10.79 14.03 10.66 9.42L10.66 9.42L10.66 9.42Q10.66 9.34 10.62 9.27L10.62 9.27L10.62 9.27Q10.59 9.21 10.54 9.21L10.54 9.21L10.54 9.21Q10.46 9.21 10.39 9.32L10.39 9.32L6.38 17.08L5.96 17.08L5.96 17.08Q5.84 16.78 5.43 15.80L5.43 15.80L5.43 15.80Q5.02 14.81 4.83 14.37L4.83 14.37L4.83 14.37Q4.65 13.92 4.29 13.07L4.29 13.07L4.29 13.07Q3.92 12.22 3.70 11.71L3.70 11.71L3.70 11.71Q3.47 11.20 3.20 10.59L3.20 10.59L3.20 10.59Q2.93 9.99 2.71 9.56L2.71 9.56L2.71 9.56Q2.63 9.42 2.56 9.42L2.56 9.42L2.56 9.42Q2.46 9.42 2.32 10.34L2.32 10.34L2.32 10.34Q2.19 11.25 2.05 12.68L2.05 12.68L2.05 12.68Q1.91 14.11 1.84 15.03L1.84 15.03L1.84 15.03Q1.76 15.96 1.70 16.77L1.70 16.77L0.64 17.13L0.55 17.09L0.55 17.09Q1.47 12.33 1.95 8.82L1.95 8.82L1.95 8.82Q1.96 8.76 1.96 8.65L1.96 8.65L1.96 8.65Q1.96 8.46 1.86 8.30L1.86 8.30L1.86 8.30Q1.75 8.15 1.57 8.10L1.57 8.10L0.62 7.83L0.64 7.53L0.75 7.43L3.21 7.43L3.21 7.43Q3.57 8.48 4.17 9.92L4.17 9.92L4.17 9.92Q4.78 11.35 5.23 12.33L5.23 12.33L5.23 12.33Q5.67 13.31 6.45 14.96L6.45 14.96L6.45 14.96Q6.55 15.16 6.61 15.16L6.61 15.16L6.61 15.16Q6.65 15.16 6.70 15.11L6.70 15.11L6.70 15.11Q6.75 15.07 6.77 15.03L6.77 15.03ZM15.66 11.60L15.66 11.60L15.55 14.54L15.55 14.54Q15.55 15.37 15.69 15.78L15.69 15.78L15.69 15.78Q15.82 16.18 16.17 16.18L16.17 16.18L16.17 16.18Q16.53 16.18 16.82 16.02L16.82 16.02L16.82 16.02Q17.12 15.86 17.46 15.55L17.46 15.55L17.64 15.69L17.64 15.85L17.64 15.85Q16.60 17.20 15.66 17.20L15.66 17.20L15.66 17.20Q15.40 17.20 15.23 17.15L15.23 17.15L15.23 17.15Q15.05 17.10 14.89 16.94L14.89 16.94L14.89 16.94Q14.72 16.79 14.63 16.46L14.63 16.46L14.63 16.46Q14.55 16.13 14.55 15.63L14.55 15.63L14.63 12.54L14.63 12.54Q14.63 11.35 14.14 11.35L14.14 11.35L14.14 11.35Q13.73 11.35 13.02 11.80L13.02 11.80L12.84 11.55L12.84 11.55Q14.14 10.49 14.80 10.49L14.80 10.49L14.80 10.49Q15.24 10.49 15.45 10.80L15.45 10.80L15.45 10.80Q15.66 11.10 15.66 11.60ZM15.86 8.34L15.86 8.34L15.86 8.34Q15.84 8.69 15.60 8.91L15.60 8.91L15.60 8.91Q15.36 9.13 15.02 9.13L15.02 9.13L15.02 9.13Q14.68 9.13 14.44 8.89L14.44 8.89L14.44 8.89Q14.21 8.65 14.21 8.31L14.21 8.31L14.21 8.31Q14.21 7.97 14.49 7.75L14.49 7.75L14.49 7.75Q14.78 7.53 15.11 7.53L15.11 7.53L15.11 7.53Q15.45 7.53 15.65 7.77L15.65 7.77L15.65 7.77Q15.86 8.01 15.86 8.34ZM19.60 16.84L19.60 16.84L18.61 17.17L18.41 17.08L18.41 17.08Q18.53 13.88 18.53 12.92L18.53 12.92L18.53 12.92Q18.53 12.10 18.43 11.70L18.43 11.70L18.43 11.70Q18.33 11.31 18.01 11.31L18.01 11.31L18.01 11.31Q17.88 11.31 17.69 11.38L17.69 11.38L17.69 11.38Q17.51 11.46 17.36 11.54L17.36 11.54L17.36 11.54Q17.22 11.63 16.97 11.80L16.97 11.80L16.73 11.49L16.73 11.49Q17.14 11.19 17.38 11.03L17.38 11.03L17.38 11.03Q17.62 10.86 18.00 10.68L18.00 10.68L18.00 10.68Q18.38 10.49 18.61 10.49L18.61 10.49L18.61 10.49Q19.10 10.49 19.33 10.75L19.33 10.75L19.33 10.75Q19.56 11.01 19.63 11.45L19.63 11.45L19.74 11.53L19.74 11.53Q20.49 11.07 21.14 10.80L21.14 10.80L21.14 10.80Q21.78 10.52 22.38 10.52L22.38 10.52L22.38 10.52Q23.11 10.52 23.46 10.93L23.46 10.93L23.46 10.93Q23.59 11.09 23.66 11.59L23.66 11.59L23.66 11.59Q23.72 12.09 23.73 12.48L23.73 12.48L23.73 12.48Q23.74 12.86 23.74 13.51L23.74 13.51L23.74 13.51Q23.74 15.17 23.75 15.34L23.75 15.34L23.75 15.34Q23.79 16.00 24.03 16.15L24.03 16.15L24.03 16.15Q24.17 16.25 24.41 16.25L24.41 16.25L24.41 16.25Q24.80 16.25 25.53 15.69L25.53 15.69L25.72 15.69L25.84 15.98L25.84 15.98Q25.31 16.51 24.71 16.87L24.71 16.87L24.71 16.87Q24.11 17.23 23.64 17.23L23.64 17.23L23.64 17.23Q22.63 17.23 22.63 16.00L22.63 16.00L22.70 13.60L22.70 13.60Q22.70 12.48 22.43 11.91L22.43 11.91L22.43 11.91Q22.15 11.35 21.44 11.35L21.44 11.35L21.44 11.35Q20.71 11.35 19.64 12.20L19.64 12.20L19.64 12.20Q19.55 14.38 19.55 15.46L19.55 15.46L19.55 15.46Q19.55 15.86 19.60 16.84ZM26.15 19.64L26.15 19.64L26.12 19.48L26.74 18.70L26.91 18.70L26.91 18.70Q27.16 19.15 27.55 19.47L27.55 19.47L27.55 19.47Q27.93 19.78 28.37 19.78L28.37 19.78L28.37 19.78Q28.80 19.78 29.14 19.62L29.14 19.62L29.14 19.62Q29.48 19.46 29.67 19.24L29.67 19.24L29.67 19.24Q29.87 19.02 30.02 18.69L30.02 18.69L30.02 18.69Q30.17 18.35 30.23 18.11L30.23 18.11L30.23 18.11Q30.29 17.87 30.34 17.57L30.34 17.57L30.34 17.57Q30.43 17.06 30.46 16.19L30.46 16.19L30.37 16.13L30.37 16.13Q29.85 16.45 29.52 16.64L29.52 16.64L29.52 16.64Q29.18 16.83 28.67 17.01L28.67 17.01L28.67 17.01Q28.16 17.20 27.74 17.20L27.74 17.20L27.74 17.20Q27.46 17.20 27.23 17.12L27.23 17.12L27.23 17.12Q27.01 17.04 26.86 16.91L26.86 16.91L26.86 16.91Q26.71 16.78 26.60 16.58L26.60 16.58L26.60 16.58Q26.49 16.39 26.43 16.19L26.43 16.19L26.43 16.19Q26.37 16.00 26.34 15.75L26.34 15.75L26.34 15.75Q26.30 15.50 26.29 15.32L26.29 15.32L26.29 15.32Q26.28 15.13 26.28 14.89L26.28 14.89L26.28 14.89Q26.28 14.58 26.31 13.96L26.31 13.96L26.31 13.96Q26.34 13.33 26.34 12.97L26.34 12.97L26.34 12.97Q26.34 12.55 26.32 12.29L26.32 12.29L26.32 12.29Q26.30 12.02 26.23 11.79L26.23 11.79L26.23 11.79Q26.17 11.56 26.04 11.45L26.04 11.45L26.04 11.45Q25.91 11.35 25.70 11.35L25.70 11.35L25.70 11.35Q25.45 11.35 24.71 11.74L24.71 11.74L24.55 11.48L24.55 11.48Q25.91 10.54 26.50 10.54L26.50 10.54L26.50 10.54Q26.93 10.54 27.15 10.82L27.15 10.82L27.15 10.82Q27.38 11.10 27.38 11.52L27.38 11.52L27.38 11.52Q27.38 11.91 27.35 12.71L27.35 12.71L27.35 12.71Q27.32 13.51 27.32 13.92L27.32 13.92L27.32 13.92Q27.35 14.85 27.44 15.28L27.44 15.28L27.44 15.28Q27.54 15.71 27.71 15.94L27.71 15.94L27.71 15.94Q28 16.30 28.59 16.30L28.59 16.30L28.59 16.30Q28.90 16.30 29.29 16.17L29.29 16.17L29.29 16.17Q29.67 16.04 29.88 15.92L29.88 15.92L29.88 15.92Q30.10 15.80 30.47 15.58L30.47 15.58L30.47 15.58Q30.50 14.59 30.50 14.08L30.50 14.08L30.50 14.08Q30.50 12.74 30.39 11.09L30.39 11.09L31.49 10.57L31.66 10.62L31.66 10.62Q31.59 11.76 31.58 13.35L31.58 13.35L31.58 13.35Q31.56 14.94 31.53 16.07L31.53 16.07L31.53 16.07Q31.50 17.20 31.37 17.77L31.37 17.77L31.37 17.77Q31.01 19.07 30.07 19.71L30.07 19.71L30.07 19.71Q29.13 20.35 27.92 20.35L27.92 20.35L27.92 20.35Q27.44 20.35 26.94 20.15L26.94 20.15L26.94 20.15Q26.43 19.94 26.15 19.64ZM38.10 11.05L38.10 11.05L38.83 10.62L38.91 10.69L38.91 10.69Q38.82 12.36 38.82 13.75L38.82 13.75L38.82 13.75Q38.82 13.88 38.81 14.16L38.81 14.16L38.81 14.16Q38.80 14.44 38.80 14.65L38.80 14.65L38.80 14.65Q38.79 14.86 38.80 15.14L38.80 15.14L38.80 15.14Q38.80 15.42 38.83 15.61L38.83 15.61L38.83 15.61Q38.87 15.81 38.93 15.99L38.93 15.99L38.93 15.99Q38.99 16.17 39.10 16.27L39.10 16.27L39.10 16.27Q39.21 16.37 39.37 16.37L39.37 16.37L39.37 16.37Q39.60 16.37 40.28 16.11L40.28 16.11L40.38 16.45L40.38 16.45Q40.34 16.47 40.19 16.56L40.19 16.56L40.19 16.56Q40.04 16.65 39.98 16.69L39.98 16.69L39.98 16.69Q39.92 16.72 39.78 16.80L39.78 16.80L39.78 16.80Q39.63 16.88 39.56 16.93L39.56 16.93L39.56 16.93Q39.48 16.97 39.36 17.03L39.36 17.03L39.36 17.03Q39.23 17.10 39.15 17.13L39.15 17.13L39.15 17.13Q39.06 17.16 38.96 17.20L38.96 17.20L38.96 17.20Q38.86 17.23 38.77 17.25L38.77 17.25L38.77 17.25Q38.69 17.26 38.62 17.26L38.62 17.26L38.62 17.26Q38.25 17.26 38.07 17.05L38.07 17.05L38.07 17.05Q37.88 16.83 37.82 16.43L37.82 16.43L37.60 16.38L37.60 16.38Q36.27 17.26 35.32 17.26L35.32 17.26L35.32 17.26Q34.77 17.26 34.35 17.01L34.35 17.01L34.35 17.01Q33.93 16.76 33.71 16.34L33.71 16.34L33.71 16.34Q33.48 15.93 33.37 15.47L33.37 15.47L33.37 15.47Q33.26 15.00 33.26 14.50L33.26 14.50L33.26 14.50Q33.26 13.89 33.38 13.33L33.38 13.33L33.38 13.33Q33.50 12.77 33.76 12.26L33.76 12.26L33.76 12.26Q34.02 11.76 34.40 11.38L34.40 11.38L34.40 11.38Q34.77 11.01 35.34 10.79L35.34 10.79L35.34 10.79Q35.91 10.57 36.60 10.57L36.60 10.57L36.60 10.57Q36.96 10.57 37.36 10.69L37.36 10.69L37.36 10.69Q37.77 10.82 38.10 11.05ZM37.79 15.70L37.79 15.70L37.79 12.48L37.79 12.48Q37.79 12.24 37.78 12.11L37.78 12.11L37.78 12.11Q37.78 11.98 37.72 11.81L37.72 11.81L37.72 11.81Q37.67 11.63 37.56 11.52L37.56 11.52L37.56 11.52Q37.12 11.05 36.61 11.05L36.61 11.05L36.61 11.05Q35.83 11.05 35.28 11.59L35.28 11.59L35.28 11.59Q34.99 11.87 34.77 12.49L34.77 12.49L34.77 12.49Q34.55 13.12 34.53 14.08L34.53 14.08L34.53 14.08Q34.50 15.12 34.92 15.76L34.92 15.76L34.92 15.76Q35.28 16.33 36.31 16.33L36.31 16.33L36.31 16.33Q36.98 16.33 37.79 15.70ZM42.66 16.84L42.66 16.84L41.67 17.17L41.47 17.08L41.47 17.08Q41.59 13.88 41.59 12.92L41.59 12.92L41.59 12.92Q41.59 12.10 41.49 11.70L41.49 11.70L41.49 11.70Q41.39 11.31 41.07 11.31L41.07 11.31L41.07 11.31Q40.93 11.31 40.75 11.38L40.75 11.38L40.75 11.38Q40.56 11.46 40.42 11.54L40.42 11.54L40.42 11.54Q40.28 11.63 40.02 11.80L40.02 11.80L39.79 11.49L39.79 11.49Q40.20 11.19 40.44 11.03L40.44 11.03L40.44 11.03Q40.67 10.86 41.05 10.68L41.05 10.68L41.05 10.68Q41.43 10.49 41.67 10.49L41.67 10.49L41.67 10.49Q42.16 10.49 42.39 10.75L42.39 10.75L42.39 10.75Q42.62 11.01 42.68 11.45L42.68 11.45L42.79 11.53L42.79 11.53Q43.55 11.07 44.19 10.80L44.19 10.80L44.19 10.80Q44.84 10.52 45.44 10.52L45.44 10.52L45.44 10.52Q46.16 10.52 46.52 10.93L46.52 10.93L46.52 10.93Q46.65 11.09 46.71 11.59L46.71 11.59L46.71 11.59Q46.78 12.09 46.79 12.48L46.79 12.48L46.79 12.48Q46.80 12.86 46.80 13.51L46.80 13.51L46.80 13.51Q46.80 15.17 46.81 15.34L46.81 15.34L46.81 15.34Q46.85 16.00 47.09 16.15L47.09 16.15L47.09 16.15Q47.22 16.25 47.47 16.25L47.47 16.25L47.47 16.25Q47.86 16.25 48.59 15.69L48.59 15.69L48.77 15.69L48.90 15.98L48.90 15.98Q48.36 16.51 47.77 16.87L47.77 16.87L47.77 16.87Q47.17 17.23 46.70 17.23L46.70 17.23L46.70 17.23Q45.69 17.23 45.69 16.00L45.69 16.00L45.76 13.60L45.76 13.60Q45.76 12.48 45.48 11.91L45.48 11.91L45.48 11.91Q45.21 11.35 44.50 11.35L44.50 11.35L44.50 11.35Q43.77 11.35 42.70 12.20L42.70 12.20L42.70 12.20Q42.61 14.38 42.61 15.46L42.61 15.46L42.61 15.46Q42.61 15.86 42.66 16.84ZM51.50 12.05L51.50 12.05L51.52 9.80L51.52 9.80Q51.52 9.73 51.53 9.52L51.53 9.52L51.53 9.52Q51.53 9.32 51.53 9.20L51.53 9.20L51.53 9.20Q51.52 9.09 51.52 8.90L51.52 8.90L51.52 8.90Q51.51 8.71 51.48 8.59L51.48 8.59L51.48 8.59Q51.45 8.47 51.40 8.34L51.40 8.34L51.40 8.34Q51.34 8.21 51.26 8.13L51.26 8.13L51.26 8.13Q51.17 8.06 51.06 8.03L51.06 8.03L50.29 7.85L50.29 7.55L50.39 7.46L50.39 7.46Q55.25 7.46 56.28 7.43L56.28 7.43L56.28 8.17L56.17 8.29L56.17 8.29Q55.83 8.26 54.77 8.13L54.77 8.13L54.77 8.13Q53.72 8.00 53.14 8.00L53.14 8.00L53.14 8.00Q52.79 8.00 52.70 8.33L52.70 8.33L52.70 8.33Q52.66 8.46 52.65 8.61L52.65 8.61L52.65 8.61Q52.63 8.76 52.61 9.49L52.61 9.49L52.61 9.49Q52.60 10.23 52.60 11.61L52.60 11.61L52.60 11.61Q52.60 11.68 52.65 11.74L52.65 11.74L52.65 11.74Q52.70 11.80 52.78 11.80L52.78 11.80L52.78 11.80Q53.38 11.80 54.57 11.72L54.57 11.72L54.57 11.72Q55.77 11.64 56.07 11.63L56.07 11.63L56.05 12.32L55.99 12.39L55.99 12.39Q54.76 12.32 52.78 12.32L52.78 12.32L52.78 12.32Q52.72 12.32 52.66 12.36L52.66 12.36L52.66 12.36Q52.61 12.40 52.61 12.47L52.61 12.47L52.61 12.47Q52.61 14.96 52.68 16.91L52.68 16.91L51.39 17.12L51.39 17.12Q51.50 13.94 51.50 12.05ZM58.40 11.60L58.40 11.60L58.29 14.54L58.29 14.54Q58.29 15.37 58.42 15.78L58.42 15.78L58.42 15.78Q58.56 16.18 58.91 16.18L58.91 16.18L58.91 16.18Q59.27 16.18 59.56 16.02L59.56 16.02L59.56 16.02Q59.86 15.86 60.20 15.55L60.20 15.55L60.38 15.69L60.38 15.85L60.38 15.85Q59.34 17.20 58.40 17.20L58.40 17.20L58.40 17.20Q58.14 17.20 57.97 17.15L57.97 17.15L57.97 17.15Q57.79 17.10 57.62 16.94L57.62 16.94L57.62 16.94Q57.46 16.79 57.37 16.46L57.37 16.46L57.37 16.46Q57.29 16.13 57.29 15.63L57.29 15.63L57.37 12.54L57.37 12.54Q57.37 11.35 56.88 11.35L56.88 11.35L56.88 11.35Q56.46 11.35 55.75 11.80L55.75 11.80L55.58 11.55L55.58 11.55Q56.88 10.49 57.54 10.49L57.54 10.49L57.54 10.49Q57.98 10.49 58.19 10.80L58.19 10.80L58.19 10.80Q58.40 11.10 58.40 11.60ZM58.60 8.34L58.60 8.34L58.60 8.34Q58.58 8.69 58.34 8.91L58.34 8.91L58.34 8.91Q58.10 9.13 57.76 9.13L57.76 9.13L57.76 9.13Q57.42 9.13 57.18 8.89L57.18 8.89L57.18 8.89Q56.94 8.65 56.94 8.31L56.94 8.31L56.94 8.31Q56.94 7.97 57.23 7.75L57.23 7.75L57.23 7.75Q57.52 7.53 57.85 7.53L57.85 7.53L57.85 7.53Q58.19 7.53 58.39 7.77L58.39 7.77L58.39 7.77Q58.60 8.01 58.60 8.34ZM62.34 16.84L62.34 16.84L61.35 17.17L61.15 17.08L61.15 17.08Q61.27 13.88 61.27 12.92L61.27 12.92L61.27 12.92Q61.27 12.10 61.17 11.70L61.17 11.70L61.17 11.70Q61.07 11.31 60.75 11.31L60.75 11.31L60.75 11.31Q60.61 11.31 60.43 11.38L60.43 11.38L60.43 11.38Q60.25 11.46 60.10 11.54L60.10 11.54L60.10 11.54Q59.96 11.63 59.71 11.80L59.71 11.80L59.47 11.49L59.47 11.49Q59.88 11.19 60.12 11.03L60.12 11.03L60.12 11.03Q60.35 10.86 60.73 10.68L60.73 10.68L60.73 10.68Q61.11 10.49 61.35 10.49L61.35 10.49L61.35 10.49Q61.84 10.49 62.07 10.75L62.07 10.75L62.07 10.75Q62.30 11.01 62.36 11.45L62.36 11.45L62.47 11.53L62.47 11.53Q63.23 11.07 63.88 10.80L63.88 10.80L63.88 10.80Q64.52 10.52 65.12 10.52L65.12 10.52L65.12 10.52Q65.84 10.52 66.20 10.93L66.20 10.93L66.20 10.93Q66.33 11.09 66.39 11.59L66.39 11.59L66.39 11.59Q66.46 12.09 66.47 12.48L66.47 12.48L66.47 12.48Q66.48 12.86 66.48 13.51L66.48 13.51L66.48 13.51Q66.48 15.17 66.49 15.34L66.49 15.34L66.49 15.34Q66.53 16.00 66.77 16.15L66.77 16.15L66.77 16.15Q66.90 16.25 67.15 16.25L67.15 16.25L67.15 16.25Q67.54 16.25 68.27 15.69L68.27 15.69L68.46 15.69L68.58 15.98L68.58 15.98Q68.04 16.51 67.45 16.87L67.45 16.87L67.45 16.87Q66.85 17.23 66.38 17.23L66.38 17.23L66.38 17.23Q65.37 17.23 65.37 16.00L65.37 16.00L65.44 13.60L65.44 13.60Q65.44 12.48 65.16 11.91L65.16 11.91L65.16 11.91Q64.89 11.35 64.18 11.35L64.18 11.35L64.18 11.35Q63.45 11.35 62.38 12.20L62.38 12.20L62.38 12.20Q62.29 14.38 62.29 15.46L62.29 15.46L62.29 15.46Q62.29 15.86 62.34 16.84ZM71.92 8.16L71.91 7.85L71.98 7.79L74.26 7.51L74.38 7.64L74.38 15.55L74.38 15.55Q74.40 15.93 74.51 16.18L74.51 16.18L74.51 16.18Q74.62 16.42 74.90 16.42L74.90 16.42L74.90 16.42Q75.07 16.42 75.76 16.15L75.76 16.15L75.87 16.47L75.87 16.47Q75.46 16.76 75.25 16.89L75.25 16.89L75.25 16.89Q75.05 17.02 74.69 17.19L74.69 17.19L74.69 17.19Q74.32 17.36 74.07 17.36L74.07 17.36L74.07 17.36Q73.68 17.36 73.47 17.05L73.47 17.05L73.47 17.05Q73.26 16.75 73.24 16.33L73.24 16.33L73.24 16.33Q71.78 17.34 70.80 17.34L70.80 17.34L70.80 17.34Q70.23 17.34 69.81 17.09L69.81 17.09L69.81 17.09Q69.38 16.84 69.16 16.42L69.16 16.42L69.16 16.42Q68.93 16.00 68.82 15.53L68.82 15.53L68.82 15.53Q68.71 15.07 68.71 14.57L68.71 14.57L68.71 14.57Q68.71 13.97 68.84 13.40L68.84 13.40L68.84 13.40Q68.97 12.84 69.23 12.33L69.23 12.33L69.23 12.33Q69.50 11.83 69.88 11.45L69.88 11.45L69.88 11.45Q70.27 11.07 70.82 10.85L70.82 10.85L70.82 10.85Q71.37 10.62 72.04 10.62L72.04 10.62L72.04 10.62Q72.55 10.62 73.20 10.83L73.20 10.83L73.29 10.77L73.29 10.77Q73.29 10.62 73.29 10.31L73.29 10.31L73.29 10.31Q73.29 10.00 73.28 9.80L73.28 9.80L73.28 9.80Q73.28 9.60 73.27 9.35L73.27 9.35L73.27 9.35Q73.26 9.11 73.24 8.94L73.24 8.94L73.24 8.94Q73.23 8.76 73.20 8.66L73.20 8.66L73.20 8.66Q73.14 8.49 73.01 8.38L73.01 8.38L73.01 8.38Q72.87 8.26 72.66 8.22L72.66 8.22L72.66 8.22Q72.45 8.18 72.30 8.17L72.30 8.17L72.30 8.17Q72.15 8.16 71.92 8.16L71.92 8.16ZM73.24 15.76L73.24 15.76L73.29 12.75L73.29 12.75Q73.29 12.49 73.27 12.28L73.27 12.28L73.27 12.28Q73.25 12.07 73.17 11.84L73.17 11.84L73.17 11.84Q73.08 11.61 72.94 11.45L72.94 11.45L72.94 11.45Q72.80 11.30 72.56 11.20L72.56 11.20L72.56 11.20Q72.31 11.09 71.98 11.09L71.98 11.09L71.98 11.09Q71.60 11.09 71.28 11.23L71.28 11.23L71.28 11.23Q70.96 11.38 70.75 11.62L70.75 11.62L70.75 11.62Q70.53 11.87 70.37 12.17L70.37 12.17L70.37 12.17Q70.21 12.48 70.11 12.84L70.11 12.84L70.11 12.84Q70.02 13.21 69.98 13.55L69.98 13.55L69.98 13.55Q69.93 13.90 69.93 14.25L69.93 14.25L69.93 14.25Q69.93 14.64 70.02 15.00L70.02 15.00L70.02 15.00Q70.10 15.37 70.28 15.70L70.28 15.70L70.28 15.70Q70.46 16.02 70.80 16.22L70.80 16.22L70.80 16.22Q71.13 16.42 71.59 16.42L71.59 16.42L71.59 16.42Q71.97 16.42 72.47 16.23L72.47 16.23L72.47 16.23Q72.97 16.03 73.24 15.76ZM77.60 11.55L77.60 11.55L77.60 11.55Q77.23 11.95 77.09 12.41L77.09 12.41L77.09 12.41Q76.96 12.87 76.96 13.45L76.96 13.45L76.96 13.45Q76.96 13.54 76.99 13.70L76.99 13.70L77.04 13.76L79.87 12.64L79.87 12.64Q80.05 12.58 80.05 12.27L80.05 12.27L80.05 12.27Q80.05 11.79 79.69 11.38L79.69 11.38L79.69 11.38Q79.33 10.96 78.78 10.96L78.78 10.96L78.78 10.96Q78.08 10.96 77.60 11.55ZM80.96 12.63L80.96 12.63L77.01 14.33L77.01 14.33Q77.05 14.69 77.16 15.02L77.16 15.02L77.16 15.02Q77.27 15.35 77.48 15.65L77.48 15.65L77.48 15.65Q77.68 15.95 78.03 16.13L78.03 16.13L78.03 16.13Q78.37 16.30 78.82 16.30L78.82 16.30L78.82 16.30Q79.75 16.30 80.97 15.35L80.97 15.35L81.13 15.38L81.31 15.63L81.31 15.63Q79.58 17.26 78.12 17.26L78.12 17.26L78.12 17.26Q77.58 17.26 77.16 17.06L77.16 17.06L77.16 17.06Q76.75 16.86 76.49 16.55L76.49 16.55L76.49 16.55Q76.24 16.23 76.08 15.78L76.08 15.78L76.08 15.78Q75.92 15.33 75.86 14.88L75.86 14.88L75.86 14.88Q75.80 14.44 75.80 13.92L75.80 13.92L75.80 13.92Q75.80 12.48 76.51 11.66L76.51 11.66L76.51 11.66Q77.02 11.05 77.75 10.73L77.75 10.73L77.75 10.73Q78.47 10.40 79.27 10.40L79.27 10.40L79.27 10.40Q80.16 10.40 80.71 10.95L80.71 10.95L80.71 10.95Q81.25 11.50 81.25 12.33L81.25 12.33L81.25 12.33Q81.25 12.41 81.20 12.47L81.20 12.47L81.20 12.47Q81.16 12.53 81.11 12.55L81.11 12.55L81.11 12.55Q81.07 12.58 80.96 12.63ZM86.45 11.66L85.70 12.35L85.53 12.27L85.53 12.27Q85.47 11.93 85.29 11.70L85.29 11.70L85.29 11.70Q85.11 11.46 84.79 11.46L84.79 11.46L84.79 11.46Q84.40 11.46 84.13 11.72L84.13 11.72L84.13 11.72Q83.86 11.98 83.71 12.33L83.71 12.33L83.71 12.33Q83.62 12.54 83.60 12.91L83.60 12.91L83.60 12.91Q83.58 13.28 83.60 13.94L83.60 13.94L83.60 13.94Q83.62 14.59 83.62 14.71L83.62 14.71L83.62 14.71Q83.62 15.77 83.66 16.84L83.66 16.84L82.67 17.13L82.47 17.01L82.47 17.01Q82.63 15.05 82.63 13.69L82.63 13.69L82.63 13.69Q82.63 13.62 82.63 13.50L82.63 13.50L82.63 13.50Q82.63 13.23 82.63 13.10L82.63 13.10L82.63 13.10Q82.63 12.97 82.63 12.73L82.63 12.73L82.63 12.73Q82.62 12.48 82.60 12.35L82.60 12.35L82.60 12.35Q82.58 12.21 82.56 12.02L82.56 12.02L82.56 12.02Q82.54 11.83 82.49 11.73L82.49 11.73L82.49 11.73Q82.44 11.63 82.38 11.52L82.38 11.52L82.38 11.52Q82.32 11.41 82.23 11.36L82.23 11.36L82.23 11.36Q82.14 11.32 82.03 11.32L82.03 11.32L82.03 11.32Q81.71 11.32 80.94 11.76L80.94 11.76L80.77 11.52L80.77 11.52Q81.20 11.18 81.41 11.03L81.41 11.03L81.41 11.03Q81.62 10.87 82.01 10.67L82.01 10.67L82.01 10.67Q82.39 10.47 82.66 10.47L82.66 10.47L82.66 10.47Q83.53 10.47 83.67 11.48L83.67 11.48L83.81 11.53L83.81 11.53Q84.82 10.55 85.35 10.55L85.35 10.55L85.35 10.55Q86.35 10.55 86.45 11.66L86.45 11.66Z"></path></g><defs data-v-423bf9ae=""><linearGradient data-v-423bf9ae="" gradientTransform="rotate(25)" id="d6a815c4-2d91-4f16-86db-7e22ff0cbd9d" x1="0%" y1="0%" x2="100%" y2="0%"><stop data-v-423bf9ae="" offset="0%" style="stop-color: rgb(233, 13, 202); stop-opacity: 1;"></stop><stop data-v-423bf9ae="" offset="100%" style="stop-color: rgb(21, 54, 241); stop-opacity: 1;"></stop></linearGradient></defs><g data-v-423bf9ae="" id="6624d6bd-b95f-4ea6-9a92-8b87fedbf091" transform="matrix(2.8125,0,0,2.8125,0,0)" stroke="none" fill="url(#d6a815c4-2d91-4f16-86db-7e22ff0cbd9d)"><path d="M16 1c8.271 0 15 6.729 15 15s-6.729 15-15 15S1 24.271 1 16 7.729 1 16 1m0-1C7.163 0 0 7.163 0 16s7.163 16 16 16 16-7.163 16-16S24.837 0 16 0z"></path><path d="M16 7.045L24.955 16 16 24.955 7.045 16 16 7.045m0-1.414L5.631 16 16 26.369 26.369 16 16 5.631z"></path><path d="M16 12.538L19.462 16 16 19.462 12.538 16 16 12.538m0-1.414L11.124 16 16 20.876 20.876 16 16 11.124z"></path></g><!----><g data-v-423bf9ae="" id="a14d598d-d8d2-4338-a6b9-e921ce7ddbca" fill="#000000" transform="matrix(0.7594609497334573,0,0,0.7594609497334573,108.80004987107563,56.40774906481461)"><path d="M7.28 9.34L7.28 9.34L7.28 9.34Q7.73 9.34 7.99 9.59L7.99 9.59L7.99 9.59Q8.25 9.84 8.25 10.29L8.25 10.29L8.25 10.29Q8.25 10.40 8.23 10.52L8.23 10.52L8.23 10.52Q8.22 10.64 8.18 10.72L8.18 10.72L8.18 10.72Q7.99 10.70 7.77 10.68L7.77 10.68L7.77 10.68Q7.55 10.65 7.24 10.65L7.24 10.65L7.24 10.65Q6.61 10.65 5.98 10.77L5.98 10.77L5.98 10.77Q5.35 10.88 4.77 10.95L4.77 10.95L4.77 10.95Q4.14 12.43 3.74 13.73L3.74 13.73L3.74 13.73Q3.33 15.04 3.11 16.31L3.11 16.31L3.11 16.31Q2.63 16.20 2.27 15.90L2.27 15.90L2.27 15.90Q1.90 15.61 1.58 15.08L1.58 15.08L1.58 15.08Q1.68 14.85 1.82 14.54L1.82 14.54L1.82 14.54Q1.96 14.22 2.16 13.74L2.16 13.74L2.16 13.74Q2.35 13.26 2.63 12.56L2.63 12.56L2.63 12.56Q2.90 11.87 3.28 10.91L3.28 10.91L3.28 10.91Q2.69 10.71 2.51 10.22L2.51 10.22L2.51 10.22Q2.58 10.15 2.90 10.06L2.90 10.06L2.90 10.06Q3.22 9.97 3.68 9.86L3.68 9.86L3.68 9.86Q3.89 9.31 4.05 8.88L4.05 8.88L4.05 8.88Q4.20 8.46 4.33 8.07L4.33 8.07L4.33 8.07Q4.45 7.69 4.56 7.32L4.56 7.32L4.56 7.32Q4.66 6.94 4.75 6.52L4.75 6.52L4.68 6.52L4.68 6.52Q4.14 6.52 3.81 6.27L3.81 6.27L3.81 6.27Q3.49 6.02 3.49 5.61L3.49 5.61L3.49 5.61Q3.49 5.50 3.52 5.35L3.52 5.35L3.52 5.35Q3.56 5.19 3.61 5.08L3.61 5.08L3.61 5.08Q3.88 5.12 4.14 5.14L4.14 5.14L4.14 5.14Q4.40 5.15 4.82 5.15L4.82 5.15L4.82 5.15Q5.70 5.15 6.47 5.10L6.47 5.10L6.47 5.10Q7.24 5.05 7.86 5.00L7.86 5.00L7.86 5.00Q8.48 4.94 8.93 4.89L8.93 4.89L8.93 4.89Q9.38 4.84 9.62 4.84L9.62 4.84L9.62 4.84Q9.94 4.84 10.19 5.18L10.19 5.18L10.19 5.18Q10.44 5.52 10.58 6.13L10.58 6.13L10.58 6.13Q10.14 6.09 9.86 6.08L9.86 6.08L9.86 6.08Q9.59 6.06 9.38 6.06L9.38 6.06L9.38 6.06Q8.67 6.06 8.07 6.13L8.07 6.13L8.07 6.13Q7.48 6.19 6.94 6.27L6.94 6.27L6.94 6.27Q6.86 6.40 6.75 6.59L6.75 6.59L6.75 6.59Q6.65 6.79 6.48 7.15L6.48 7.15L6.48 7.15Q6.31 7.50 6.05 8.08L6.05 8.08L6.05 8.08Q5.80 8.65 5.40 9.53L5.40 9.53L5.40 9.53Q5.95 9.45 6.45 9.39L6.45 9.39L6.45 9.39Q6.94 9.34 7.28 9.34ZM16.55 14.38L16.55 14.38L16.55 14.38Q16.55 13.87 16.71 13.07L16.71 13.07L16.71 13.07Q16.87 12.26 17.13 11.33L17.13 11.33L17.13 11.33Q17.39 10.40 17.72 9.43L17.72 9.43L17.72 9.43Q18.06 8.46 18.41 7.60L18.41 7.60L18.41 7.60Q18.76 6.75 19.10 6.10L19.10 6.10L19.10 6.10Q19.43 5.46 19.70 5.18L19.70 5.18L19.70 5.18Q19.84 5.19 20.07 5.29L20.07 5.29L20.07 5.29Q20.30 5.38 20.54 5.50L20.54 5.50L20.54 5.50Q20.78 5.63 20.97 5.78L20.97 5.78L20.97 5.78Q21.17 5.92 21.22 6.05L21.22 6.05L21.22 6.05Q20.82 6.41 20.42 7.15L20.42 7.15L20.42 7.15Q20.02 7.88 19.65 8.82L19.65 8.82L19.65 8.82Q19.28 9.76 18.96 10.80L18.96 10.80L18.96 10.80Q18.63 11.84 18.40 12.82L18.40 12.82L18.40 12.82Q18.16 13.80 18.02 14.64L18.02 14.64L18.02 14.64Q17.89 15.48 17.89 16.00L17.89 16.00L17.89 16.00Q17.89 16.24 17.93 16.30L17.93 16.30L17.93 16.30Q17.63 16.28 17.49 16.19L17.49 16.19L17.49 16.19Q17.35 16.10 17.27 16.00L17.27 16.00L17.27 16.00Q17.19 15.89 17.13 15.79L17.13 15.79L17.13 15.79Q17.07 15.68 16.94 15.62L16.94 15.62L16.94 15.62Q16.84 15.58 16.77 15.43L16.77 15.43L16.77 15.43Q16.70 15.27 16.65 15.09L16.65 15.09L16.65 15.09Q16.60 14.90 16.58 14.70L16.58 14.70L16.58 14.70Q16.55 14.50 16.55 14.38ZM28.78 16.24L28.78 16.24L28.78 16.24Q27.99 16.00 27.71 15.79L27.71 15.79L27.71 15.79Q27.43 15.57 27.43 15.19L27.43 15.19L27.43 15.19Q27.43 14.77 27.62 14.01L27.62 14.01L27.62 14.01Q27.82 13.24 28.13 12.31L28.13 12.31L28.13 12.31Q28.45 11.37 28.85 10.35L28.85 10.35L28.85 10.35Q29.26 9.32 29.68 8.39L29.68 8.39L29.68 8.39Q30.10 7.45 30.50 6.67L30.50 6.67L30.50 6.67Q30.90 5.89 31.21 5.46L31.21 5.46L31.11 4.87L31.11 4.87Q31.30 4.87 31.65 4.97L31.65 4.97L31.65 4.97Q32.00 5.07 32.36 5.21L32.36 5.21L32.36 5.21Q32.72 5.35 32.99 5.49L32.99 5.49L32.99 5.49Q33.26 5.64 33.29 5.74L33.29 5.74L33.29 5.74Q33.22 6.08 33.18 6.76L33.18 6.76L33.18 6.76Q33.14 7.43 33.14 8.20L33.14 8.20L33.14 8.20Q33.14 9.73 33.26 11.19L33.26 11.19L33.26 11.19Q33.38 12.66 33.81 14.17L33.81 14.17L33.81 14.17Q34.03 13.05 34.29 11.94L34.29 11.94L34.29 11.94Q34.55 10.82 34.83 9.81L34.83 9.81L34.83 9.81Q35.11 8.79 35.39 7.92L35.39 7.92L35.39 7.92Q35.67 7.06 35.93 6.40L35.93 6.40L35.93 6.40Q36.19 5.75 36.41 5.38L36.41 5.38L36.41 5.38Q36.64 5.01 36.82 4.98L36.82 4.98L36.82 4.98Q36.97 5.01 37.16 5.10L37.16 5.10L37.16 5.10Q37.34 5.19 37.51 5.32L37.51 5.32L37.51 5.32Q37.67 5.45 37.81 5.60L37.81 5.60L37.81 5.60Q37.95 5.75 38.04 5.91L38.04 5.91L38.04 5.91Q37.59 6.09 37.15 6.76L37.15 6.76L37.15 6.76Q36.71 7.43 36.31 8.39L36.31 8.39L36.31 8.39Q35.91 9.35 35.57 10.47L35.57 10.47L35.57 10.47Q35.22 11.59 34.97 12.68L34.97 12.68L34.97 12.68Q34.71 13.76 34.56 14.69L34.56 14.69L34.56 14.69Q34.41 15.61 34.40 16.17L34.40 16.17L34.40 16.17Q34.40 16.20 34.41 16.21L34.41 16.21L34.41 16.21Q34.37 16.23 34.32 16.23L34.32 16.23L34.32 16.23Q34.27 16.23 34.23 16.23L34.23 16.23L34.23 16.23Q33.59 16.23 33.09 16.07L33.09 16.07L33.09 16.07Q32.59 15.90 32.44 15.61L32.44 15.61L32.44 15.61Q32.14 14.43 31.95 13.34L31.95 13.34L31.95 13.34Q31.75 12.25 31.62 11.16L31.62 11.16L31.62 11.16Q31.49 10.07 31.41 8.95L31.41 8.95L31.41 8.95Q31.33 7.84 31.29 6.62L31.29 6.62L31.29 6.62Q31.02 7.04 30.73 7.72L30.73 7.72L30.73 7.72Q30.44 8.40 30.16 9.21L30.16 9.21L30.16 9.21Q29.88 10.02 29.62 10.92L29.62 10.92L29.62 10.92Q29.36 11.82 29.16 12.67L29.16 12.67L29.16 12.67Q28.97 13.52 28.85 14.29L28.85 14.29L28.85 14.29Q28.74 15.05 28.74 15.61L28.74 15.61L28.74 15.61Q28.74 15.90 28.75 16.03L28.75 16.03L28.75 16.03Q28.76 16.16 28.78 16.24ZM45.04 14.45L45.04 14.45L45.04 14.45Q45.25 13.99 45.54 13.26L45.54 13.26L45.54 13.26Q45.84 12.53 46.16 11.68L46.16 11.68L46.16 11.68Q46.48 10.84 46.82 9.95L46.82 9.95L46.82 9.95Q47.15 9.06 47.45 8.26L47.45 8.26L47.45 8.26Q47.74 7.46 47.96 6.83L47.96 6.83L47.96 6.83Q48.17 6.20 48.27 5.87L48.27 5.87L48.27 5.87Q47.39 6.23 46.76 6.97L46.76 6.97L46.76 6.97Q46.13 7.71 45.81 8.83L45.81 8.83L45.81 8.83Q45.49 8.72 45.22 8.43L45.22 8.43L45.22 8.43Q44.95 8.15 44.87 7.71L44.87 7.71L44.87 7.71Q45.01 7.07 45.40 6.54L45.40 6.54L45.40 6.54Q45.78 6.01 46.37 5.63L46.37 5.63L46.37 5.63Q46.96 5.25 47.73 5.05L47.73 5.05L47.73 5.05Q48.50 4.84 49.38 4.84L49.38 4.84L49.38 4.84Q50.50 4.84 51.44 5.17L51.44 5.17L51.44 5.17Q52.37 5.50 53.05 6.09L53.05 6.09L53.05 6.09Q53.72 6.68 54.10 7.50L54.10 7.50L54.10 7.50Q54.47 8.33 54.47 9.34L54.47 9.34L54.47 9.34Q54.47 10.71 53.97 11.96L53.97 11.96L53.97 11.96Q53.47 13.20 52.61 14.15L52.61 14.15L52.61 14.15Q51.74 15.11 50.61 15.67L50.61 15.67L50.61 15.67Q49.48 16.24 48.23 16.24L48.23 16.24L48.23 16.24Q47.08 16.24 46.26 15.79L46.26 15.79L46.26 15.79Q45.44 15.33 45.04 14.45ZM49.98 5.54L49.98 5.54L49.98 5.54Q49.28 5.54 48.65 5.74L48.65 5.74L48.65 5.74Q49.27 5.96 49.67 6.21L49.67 6.21L49.67 6.21Q50.08 6.45 50.23 6.59L50.23 6.59L50.23 6.59Q50.12 6.75 49.90 7.14L49.90 7.14L49.90 7.14Q49.69 7.53 49.40 8.09L49.40 8.09L49.40 8.09Q49.11 8.65 48.79 9.32L48.79 9.32L48.79 9.32Q48.47 9.98 48.16 10.68L48.16 10.68L48.16 10.68Q47.36 12.46 47.01 13.48L47.01 13.48L47.01 13.48Q46.65 14.50 46.65 14.90L46.65 14.90L46.65 14.90Q46.84 14.97 47.12 14.99L47.12 14.99L47.12 14.99Q47.40 15.02 47.73 15.02L47.73 15.02L47.73 15.02Q48.86 15.02 49.88 14.50L49.88 14.50L49.88 14.50Q50.89 13.97 51.65 13.09L51.65 13.09L51.65 13.09Q52.42 12.21 52.86 11.04L52.86 11.04L52.86 11.04Q53.30 9.87 53.30 8.58L53.30 8.58L53.30 8.58Q53.30 7.14 52.40 6.34L52.40 6.34L52.40 6.34Q51.51 5.54 49.98 5.54ZM72.95 16.24L72.95 16.24L72.95 16.24Q72.28 16.04 72.02 15.85L72.02 15.85L72.02 15.85Q71.76 15.65 71.76 15.36L71.76 15.36L71.76 15.36Q71.76 15.13 71.89 14.73L71.89 14.73L71.89 14.73Q72.02 14.32 72.26 13.77L72.26 13.77L72.26 13.77Q72.51 13.22 72.85 12.54L72.85 12.54L72.85 12.54Q73.19 11.87 73.63 11.10L73.63 11.10L73.63 11.10Q73.26 11.09 72.97 11.08L72.97 11.08L72.97 11.08Q72.69 11.07 72.51 11.07L72.51 11.07L72.51 11.07Q72.59 10.86 72.98 10.71L72.98 10.71L72.98 10.71Q73.37 10.56 74.02 10.44L74.02 10.44L74.02 10.44Q74.56 9.53 75.19 8.71L75.19 8.71L75.19 8.71Q75.81 7.88 76.44 7.19L76.44 7.19L76.44 7.19Q77.07 6.50 77.70 5.97L77.70 5.97L77.70 5.97Q78.33 5.45 78.90 5.14L78.90 5.14L78.90 5.14Q78.92 5.04 78.92 4.97L78.92 4.97L78.92 4.97Q78.93 4.90 78.93 4.87L78.93 4.87L78.93 4.87Q79.13 4.87 79.46 4.97L79.46 4.97L79.46 4.97Q79.79 5.07 80.10 5.21L80.10 5.21L80.10 5.21Q80.42 5.35 80.66 5.49L80.66 5.49L80.66 5.49Q80.91 5.64 80.93 5.74L80.93 5.74L80.93 5.74Q80.47 6.55 80.02 8.17L80.02 8.17L80.02 8.17Q79.58 9.79 79.28 12.04L79.28 12.04L79.28 12.04Q79.21 12.60 79.16 13.31L79.16 13.31L79.16 13.31Q79.11 14.03 79.11 14.91L79.11 14.91L79.11 14.91Q79.11 15.22 79.11 15.54L79.11 15.54L79.11 15.54Q79.11 15.86 79.14 16.21L79.14 16.21L79.14 16.21Q79.11 16.23 79.09 16.23L79.09 16.23L79.09 16.23Q79.06 16.23 78.97 16.23L78.97 16.23L78.97 16.23Q78.78 16.23 78.52 16.16L78.52 16.16L78.52 16.16Q78.26 16.10 78.02 16.01L78.02 16.01L78.02 16.01Q77.77 15.92 77.59 15.81L77.59 15.81L77.59 15.81Q77.42 15.69 77.38 15.61L77.38 15.61L77.38 15.61Q77.36 15.43 77.36 15.25L77.36 15.25L77.36 15.25Q77.36 15.08 77.36 14.88L77.36 14.88L77.36 14.88Q77.36 14.01 77.43 13.12L77.43 13.12L77.43 13.12Q77.49 12.22 77.64 11.27L77.64 11.27L77.64 11.27Q77.45 11.26 77.13 11.23L77.13 11.23L77.13 11.23Q76.80 11.21 76.41 11.20L76.41 11.20L76.41 11.20Q76.01 11.19 75.55 11.16L75.55 11.16L75.55 11.16Q75.10 11.14 74.66 11.13L74.66 11.13L74.66 11.13Q74.33 11.76 74.03 12.38L74.03 12.38L74.03 12.38Q73.74 13.01 73.53 13.64L73.53 13.64L73.53 13.64Q73.29 14.31 73.14 14.98L73.14 14.98L73.14 14.98Q73.00 15.65 72.95 16.24ZM78.36 7.83L78.36 7.83L78.36 7.83Q78.41 7.63 78.49 7.29L78.49 7.29L78.49 7.29Q78.57 6.94 78.64 6.57L78.64 6.57L78.64 6.57Q78.29 6.69 77.86 7.03L77.86 7.03L77.86 7.03Q77.43 7.36 76.98 7.86L76.98 7.86L76.98 7.86Q76.52 8.36 76.05 8.98L76.05 8.98L76.05 8.98Q75.59 9.60 75.15 10.30L75.15 10.30L75.15 10.30Q76.33 10.21 77.83 10.18L77.83 10.18L77.83 10.18Q77.94 9.59 78.07 9.01L78.07 9.01L78.07 9.01Q78.20 8.43 78.36 7.83ZM104.43 16.21L104.43 16.21L104.43 16.21Q104.40 16.23 104.37 16.23L104.37 16.23L104.37 16.23Q104.34 16.23 104.26 16.23L104.26 16.23L104.26 16.23Q104.06 16.23 103.80 16.16L103.80 16.16L103.80 16.16Q103.54 16.10 103.30 16.01L103.30 16.01L103.30 16.01Q103.05 15.92 102.88 15.81L102.88 15.81L102.88 15.81Q102.70 15.69 102.66 15.61L102.66 15.61L102.66 15.61Q102.65 15.41 102.65 15.20L102.65 15.20L102.65 15.20Q102.65 14.99 102.65 14.80L102.65 14.80L102.65 14.80Q102.65 13.23 102.88 11.52L102.88 11.52L102.88 11.52Q103.11 9.81 103.64 7.83L103.64 7.83L103.64 7.83Q103.70 7.63 103.76 7.33L103.76 7.33L103.76 7.33Q103.82 7.03 103.89 6.68L103.89 6.68L103.89 6.68Q103.56 6.94 103.10 7.53L103.10 7.53L103.10 7.53Q102.63 8.11 102.12 8.90L102.12 8.90L102.12 8.90Q101.61 9.69 101.10 10.63L101.10 10.63L101.10 10.63Q100.59 11.58 100.17 12.55L100.17 12.55L100.17 12.55Q99.75 13.52 99.45 14.48L99.45 14.48L99.45 14.48Q99.15 15.43 99.08 16.24L99.08 16.24L99.08 16.24Q98.41 16.04 98.15 15.85L98.15 15.85L98.15 15.85Q97.89 15.65 97.89 15.37L97.89 15.37L97.89 15.37Q97.89 15.12 98.04 14.66L98.04 14.66L98.04 14.66Q98.20 14.20 98.48 13.57L98.48 13.57L98.48 13.57Q98.76 12.94 99.16 12.16L99.16 12.16L99.16 12.16Q99.57 11.38 100.06 10.49L100.06 10.49L100.06 10.49Q100.62 9.46 101.16 8.57L101.16 8.57L101.16 8.57Q101.70 7.67 102.21 6.94L102.21 6.94L102.21 6.94Q102.73 6.22 103.23 5.68L103.23 5.68L103.23 5.68Q103.73 5.15 104.22 4.87L104.22 4.87L104.22 4.87Q104.41 4.87 104.74 4.97L104.74 4.97L104.74 4.97Q105.07 5.07 105.38 5.21L105.38 5.21L105.38 5.21Q105.70 5.35 105.94 5.49L105.94 5.49L105.94 5.49Q106.19 5.64 106.22 5.74L106.22 5.74L106.22 5.74Q106.02 6.13 105.76 6.92L105.76 6.92L105.76 6.92Q105.49 7.70 105.22 8.69L105.22 8.69L105.22 8.69Q104.94 9.69 104.70 10.80L104.70 10.80L104.70 10.80Q104.45 11.91 104.31 12.94L104.31 12.94L104.31 12.94Q104.64 12.17 105.06 11.33L105.06 11.33L105.06 11.33Q105.49 10.50 105.97 9.68L105.97 9.68L105.97 9.68Q106.44 8.86 106.94 8.09L106.94 8.09L106.94 8.09Q107.44 7.32 107.91 6.69L107.91 6.69L107.91 6.69Q108.39 6.05 108.80 5.57L108.80 5.57L108.80 5.57Q109.21 5.10 109.54 4.87L109.54 4.87L109.54 4.87Q109.73 4.87 110.06 4.97L110.06 4.97L110.06 4.97Q110.39 5.07 110.70 5.21L110.70 5.21L110.70 5.21Q111.02 5.35 111.26 5.49L111.26 5.49L111.26 5.49Q111.51 5.64 111.54 5.74L111.54 5.74L111.54 5.74Q111.09 6.54 110.75 7.69L110.75 7.69L110.75 7.69Q110.42 8.83 110.19 10.09L110.19 10.09L110.19 10.09Q109.96 11.35 109.84 12.59L109.84 12.59L109.84 12.59Q109.72 13.83 109.72 14.81L109.72 14.81L109.72 14.81Q109.72 15.13 109.72 15.48L109.72 15.48L109.72 15.48Q109.72 15.83 109.75 16.21L109.75 16.21L109.75 16.21Q109.55 16.21 109.28 16.16L109.28 16.16L109.28 16.16Q109.00 16.11 108.74 16.03L108.74 16.03L108.74 16.03Q108.49 15.95 108.28 15.84L108.28 15.84L108.28 15.84Q108.07 15.74 107.98 15.61L107.98 15.61L107.98 15.61Q107.97 15.41 107.97 15.20L107.97 15.20L107.97 15.20Q107.97 14.99 107.97 14.80L107.97 14.80L107.97 14.80Q107.97 13.23 108.20 11.52L108.20 11.52L108.20 11.52Q108.43 9.81 108.96 7.83L108.96 7.83L108.96 7.83Q109.02 7.63 109.09 7.29L109.09 7.29L109.09 7.29Q109.16 6.96 109.23 6.59L109.23 6.59L109.23 6.59Q108.84 6.79 108.34 7.34L108.34 7.34L108.34 7.34Q107.84 7.90 107.33 8.69L107.33 8.69L107.33 8.69Q106.82 9.48 106.32 10.44L106.32 10.44L106.32 10.44Q105.83 11.41 105.43 12.41L105.43 12.41L105.43 12.41Q105.03 13.41 104.75 14.40L104.75 14.40L104.75 14.40Q104.48 15.39 104.43 16.21ZM119.17 14.38L119.17 14.38L119.17 14.38Q119.17 13.87 119.33 13.07L119.33 13.07L119.33 13.07Q119.49 12.26 119.75 11.33L119.75 11.33L119.75 11.33Q120.01 10.40 120.34 9.43L120.34 9.43L120.34 9.43Q120.68 8.46 121.03 7.60L121.03 7.60L121.03 7.60Q121.38 6.75 121.72 6.10L121.72 6.10L121.72 6.10Q122.05 5.46 122.32 5.18L122.32 5.18L122.32 5.18Q122.46 5.19 122.69 5.29L122.69 5.29L122.69 5.29Q122.92 5.38 123.16 5.50L123.16 5.50L123.16 5.50Q123.40 5.63 123.59 5.78L123.59 5.78L123.59 5.78Q123.79 5.92 123.84 6.05L123.84 6.05L123.84 6.05Q123.44 6.41 123.04 7.15L123.04 7.15L123.04 7.15Q122.64 7.88 122.27 8.82L122.27 8.82L122.27 8.82Q121.90 9.76 121.58 10.80L121.58 10.80L121.58 10.80Q121.25 11.84 121.02 12.82L121.02 12.82L121.02 12.82Q120.78 13.80 120.64 14.64L120.64 14.64L120.64 14.64Q120.51 15.48 120.51 16.00L120.51 16.00L120.51 16.00Q120.51 16.24 120.55 16.30L120.55 16.30L120.55 16.30Q120.25 16.28 120.11 16.19L120.11 16.19L120.11 16.19Q119.97 16.10 119.89 16.00L119.89 16.00L119.89 16.00Q119.81 15.89 119.75 15.79L119.75 15.79L119.75 15.79Q119.69 15.68 119.56 15.62L119.56 15.62L119.56 15.62Q119.46 15.58 119.39 15.43L119.39 15.43L119.39 15.43Q119.32 15.27 119.27 15.09L119.27 15.09L119.27 15.09Q119.22 14.90 119.20 14.70L119.20 14.70L119.20 14.70Q119.17 14.50 119.17 14.38ZM131.40 16.24L131.40 16.24L131.40 16.24Q130.61 16.00 130.33 15.79L130.33 15.79L130.33 15.79Q130.05 15.57 130.05 15.19L130.05 15.19L130.05 15.19Q130.05 14.77 130.24 14.01L130.24 14.01L130.24 14.01Q130.44 13.24 130.75 12.31L130.75 12.31L130.75 12.31Q131.07 11.37 131.47 10.35L131.47 10.35L131.47 10.35Q131.88 9.32 132.30 8.39L132.30 8.39L132.30 8.39Q132.72 7.45 133.12 6.67L133.12 6.67L133.12 6.67Q133.52 5.89 133.83 5.46L133.83 5.46L133.73 4.87L133.73 4.87Q133.92 4.87 134.27 4.97L134.27 4.97L134.27 4.97Q134.62 5.07 134.98 5.21L134.98 5.21L134.98 5.21Q135.34 5.35 135.61 5.49L135.61 5.49L135.61 5.49Q135.88 5.64 135.91 5.74L135.91 5.74L135.91 5.74Q135.84 6.08 135.80 6.76L135.80 6.76L135.80 6.76Q135.76 7.43 135.76 8.20L135.76 8.20L135.76 8.20Q135.76 9.73 135.88 11.19L135.88 11.19L135.88 11.19Q136.00 12.66 136.43 14.17L136.43 14.17L136.43 14.17Q136.65 13.05 136.91 11.94L136.91 11.94L136.91 11.94Q137.17 10.82 137.45 9.81L137.45 9.81L137.45 9.81Q137.73 8.79 138.01 7.92L138.01 7.92L138.01 7.92Q138.29 7.06 138.55 6.40L138.55 6.40L138.55 6.40Q138.81 5.75 139.03 5.38L139.03 5.38L139.03 5.38Q139.26 5.01 139.44 4.98L139.44 4.98L139.44 4.98Q139.59 5.01 139.78 5.10L139.78 5.10L139.78 5.10Q139.96 5.19 140.13 5.32L140.13 5.32L140.13 5.32Q140.29 5.45 140.43 5.60L140.43 5.60L140.43 5.60Q140.57 5.75 140.66 5.91L140.66 5.91L140.66 5.91Q140.21 6.09 139.77 6.76L139.77 6.76L139.77 6.76Q139.33 7.43 138.93 8.39L138.93 8.39L138.93 8.39Q138.53 9.35 138.19 10.47L138.19 10.47L138.19 10.47Q137.84 11.59 137.58 12.68L137.58 12.68L137.58 12.68Q137.33 13.76 137.18 14.69L137.18 14.69L137.18 14.69Q137.03 15.61 137.02 16.17L137.02 16.17L137.02 16.17Q137.02 16.20 137.03 16.21L137.03 16.21L137.03 16.21Q136.99 16.23 136.94 16.23L136.94 16.23L136.94 16.23Q136.89 16.23 136.85 16.23L136.85 16.23L136.85 16.23Q136.21 16.23 135.71 16.07L135.71 16.07L135.71 16.07Q135.21 15.90 135.06 15.61L135.06 15.61L135.06 15.61Q134.76 14.43 134.57 13.34L134.57 13.34L134.57 13.34Q134.37 12.25 134.24 11.16L134.24 11.16L134.24 11.16Q134.11 10.07 134.03 8.95L134.03 8.95L134.03 8.95Q133.95 7.84 133.91 6.62L133.91 6.62L133.91 6.62Q133.64 7.04 133.35 7.72L133.35 7.72L133.35 7.72Q133.06 8.40 132.78 9.21L132.78 9.21L132.78 9.21Q132.50 10.02 132.24 10.92L132.24 10.92L132.24 10.92Q131.98 11.82 131.78 12.67L131.78 12.67L131.78 12.67Q131.59 13.52 131.47 14.29L131.47 14.29L131.47 14.29Q131.36 15.05 131.36 15.61L131.36 15.61L131.36 15.61Q131.36 15.90 131.37 16.03L131.37 16.03L131.37 16.03Q131.38 16.16 131.40 16.24ZM151.89 10.35L151.89 10.35L151.89 10.35Q152.94 9.20 153.77 7.91L153.77 7.91L153.77 7.91Q154.60 6.62 155.32 5.01L155.32 5.01L155.32 5.01Q155.68 5.05 156.02 5.21L156.02 5.21L156.02 5.21Q156.35 5.36 156.55 5.56L156.55 5.56L156.55 5.56Q155.78 6.48 155.15 7.24L155.15 7.24L155.15 7.24Q154.53 7.99 154.01 8.66L154.01 8.66L154.01 8.66Q153.50 9.32 153.05 9.93L153.05 9.93L153.05 9.93Q152.61 10.54 152.19 11.16L152.19 11.16L152.19 11.16Q151.98 11.87 151.80 12.60L151.80 12.60L151.80 12.60Q151.62 13.33 151.48 13.99L151.48 13.99L151.48 13.99Q151.34 14.66 151.26 15.22L151.26 15.22L151.26 15.22Q151.19 15.79 151.19 16.20L151.19 16.20L151.19 16.20Q151.03 16.20 150.70 16.14L150.70 16.14L150.70 16.14Q150.36 16.07 150.01 15.99L150.01 15.99L150.01 15.99Q149.66 15.90 149.37 15.82L149.37 15.82L149.37 15.82Q149.09 15.74 149.03 15.68L149.03 15.68L149.03 15.68Q149.25 15.30 149.47 14.75L149.47 14.75L149.47 14.75Q149.69 14.20 149.90 13.59L149.90 13.59L149.90 13.59Q150.11 12.98 150.30 12.36L150.30 12.36L150.30 12.36Q150.50 11.73 150.67 11.20L150.67 11.20L150.67 11.20Q150.32 10.11 149.99 9.15L149.99 9.15L149.99 9.15Q149.66 8.19 149.35 7.41L149.35 7.41L149.35 7.41Q149.04 6.64 148.76 6.08L148.76 6.08L148.76 6.08Q148.48 5.52 148.23 5.22L148.23 5.22L148.23 5.22Q148.37 5.17 148.66 5.11L148.66 5.11L148.66 5.11Q148.95 5.05 149.29 5.00L149.29 5.00L149.29 5.00Q149.63 4.94 149.99 4.91L149.99 4.91L149.99 4.91Q150.35 4.87 150.63 4.86L150.63 4.86L150.63 4.86Q150.63 5.21 150.69 5.71L150.69 5.71L150.69 5.71Q150.75 6.22 150.86 6.79L150.86 6.79L150.86 6.79Q150.96 7.36 151.10 7.95L151.10 7.95L151.10 7.95Q151.24 8.54 151.38 9.03L151.38 9.03L151.38 9.03Q151.52 9.52 151.65 9.88L151.65 9.88L151.65 9.88Q151.79 10.23 151.89 10.35ZM162.46 16.24L162.46 16.24L162.46 16.24Q161.78 16.04 161.52 15.85L161.52 15.85L161.52 15.85Q161.27 15.65 161.27 15.36L161.27 15.36L161.27 15.36Q161.27 15.13 161.39 14.73L161.39 14.73L161.39 14.73Q161.52 14.32 161.76 13.77L161.76 13.77L161.76 13.77Q162.01 13.22 162.35 12.54L162.35 12.54L162.35 12.54Q162.69 11.87 163.13 11.10L163.13 11.10L163.13 11.10Q162.76 11.09 162.48 11.08L162.48 11.08L162.48 11.08Q162.19 11.07 162.01 11.07L162.01 11.07L162.01 11.07Q162.09 10.86 162.48 10.71L162.48 10.71L162.48 10.71Q162.88 10.56 163.52 10.44L163.52 10.44L163.52 10.44Q164.07 9.53 164.69 8.71L164.69 8.71L164.69 8.71Q165.31 7.88 165.94 7.19L165.94 7.19L165.94 7.19Q166.57 6.50 167.20 5.97L167.20 5.97L167.20 5.97Q167.83 5.45 168.41 5.14L168.41 5.14L168.41 5.14Q168.42 5.04 168.43 4.97L168.43 4.97L168.43 4.97Q168.43 4.90 168.43 4.87L168.43 4.87L168.43 4.87Q168.63 4.87 168.96 4.97L168.96 4.97L168.96 4.97Q169.29 5.07 169.60 5.21L169.60 5.21L169.60 5.21Q169.92 5.35 170.16 5.49L170.16 5.49L170.16 5.49Q170.41 5.64 170.44 5.74L170.44 5.74L170.44 5.74Q169.97 6.55 169.53 8.17L169.53 8.17L169.53 8.17Q169.08 9.79 168.78 12.04L168.78 12.04L168.78 12.04Q168.71 12.60 168.66 13.31L168.66 13.31L168.66 13.31Q168.62 14.03 168.62 14.91L168.62 14.91L168.62 14.91Q168.62 15.22 168.62 15.54L168.62 15.54L168.62 15.54Q168.62 15.86 168.64 16.21L168.64 16.21L168.64 16.21Q168.62 16.23 168.59 16.23L168.59 16.23L168.59 16.23Q168.56 16.23 168.48 16.23L168.48 16.23L168.48 16.23Q168.28 16.23 168.02 16.16L168.02 16.16L168.02 16.16Q167.76 16.10 167.52 16.01L167.52 16.01L167.52 16.01Q167.27 15.92 167.10 15.81L167.10 15.81L167.10 15.81Q166.92 15.69 166.88 15.61L166.88 15.61L166.88 15.61Q166.87 15.43 166.87 15.25L166.87 15.25L166.87 15.25Q166.87 15.08 166.87 14.88L166.87 14.88L166.87 14.88Q166.87 14.01 166.93 13.12L166.93 13.12L166.93 13.12Q166.99 12.22 167.15 11.27L167.15 11.27L167.15 11.27Q166.95 11.26 166.63 11.23L166.63 11.23L166.63 11.23Q166.31 11.21 165.91 11.20L165.91 11.20L165.91 11.20Q165.51 11.19 165.05 11.16L165.05 11.16L165.05 11.16Q164.60 11.14 164.16 11.13L164.16 11.13L164.16 11.13Q163.83 11.76 163.53 12.38L163.53 12.38L163.53 12.38Q163.24 13.01 163.03 13.64L163.03 13.64L163.03 13.64Q162.79 14.31 162.64 14.98L162.64 14.98L162.64 14.98Q162.50 15.65 162.46 16.24ZM167.86 7.83L167.86 7.83L167.86 7.83Q167.92 7.63 167.99 7.29L167.99 7.29L167.99 7.29Q168.07 6.94 168.14 6.57L168.14 6.57L168.14 6.57Q167.79 6.69 167.36 7.03L167.36 7.03L167.36 7.03Q166.94 7.36 166.48 7.86L166.48 7.86L166.48 7.86Q166.03 8.36 165.56 8.98L165.56 8.98L165.56 8.98Q165.09 9.60 164.65 10.30L164.65 10.30L164.65 10.30Q165.83 10.21 167.33 10.18L167.33 10.18L167.33 10.18Q167.44 9.59 167.57 9.01L167.57 9.01L167.57 9.01Q167.71 8.43 167.86 7.83ZM179.06 16.24L179.06 16.24L179.06 16.24Q178.26 16.00 177.98 15.79L177.98 15.79L177.98 15.79Q177.70 15.57 177.70 15.19L177.70 15.19L177.70 15.19Q177.70 14.77 177.90 14.01L177.90 14.01L177.90 14.01Q178.09 13.24 178.41 12.31L178.41 12.31L178.41 12.31Q178.72 11.37 179.13 10.35L179.13 10.35L179.13 10.35Q179.54 9.32 179.96 8.39L179.96 8.39L179.96 8.39Q180.38 7.45 180.77 6.67L180.77 6.67L180.77 6.67Q181.17 5.89 181.48 5.46L181.48 5.46L181.38 4.87L181.38 4.87Q181.58 4.87 181.93 4.97L181.93 4.97L181.93 4.97Q182.28 5.07 182.64 5.21L182.64 5.21L182.64 5.21Q182.99 5.35 183.27 5.49L183.27 5.49L183.27 5.49Q183.54 5.64 183.57 5.74L183.57 5.74L183.57 5.74Q183.50 6.08 183.46 6.76L183.46 6.76L183.46 6.76Q183.41 7.43 183.41 8.20L183.41 8.20L183.41 8.20Q183.41 9.73 183.53 11.19L183.53 11.19L183.53 11.19Q183.65 12.66 184.09 14.17L184.09 14.17L184.09 14.17Q184.31 13.05 184.57 11.94L184.57 11.94L184.57 11.94Q184.83 10.82 185.11 9.81L185.11 9.81L185.11 9.81Q185.39 8.79 185.67 7.92L185.67 7.92L185.67 7.92Q185.95 7.06 186.21 6.40L186.21 6.40L186.21 6.40Q186.47 5.75 186.69 5.38L186.69 5.38L186.69 5.38Q186.91 5.01 187.10 4.98L187.10 4.98L187.10 4.98Q187.25 5.01 187.43 5.10L187.43 5.10L187.43 5.10Q187.61 5.19 187.78 5.32L187.78 5.32L187.78 5.32Q187.95 5.45 188.09 5.60L188.09 5.60L188.09 5.60Q188.23 5.75 188.31 5.91L188.31 5.91L188.31 5.91Q187.87 6.09 187.42 6.76L187.42 6.76L187.42 6.76Q186.98 7.43 186.58 8.39L186.58 8.39L186.58 8.39Q186.19 9.35 185.84 10.47L185.84 10.47L185.84 10.47Q185.50 11.59 185.24 12.68L185.24 12.68L185.24 12.68Q184.98 13.76 184.83 14.69L184.83 14.69L184.83 14.69Q184.69 15.61 184.67 16.17L184.67 16.17L184.67 16.17Q184.67 16.20 184.69 16.21L184.69 16.21L184.69 16.21Q184.65 16.23 184.60 16.23L184.60 16.23L184.60 16.23Q184.55 16.23 184.51 16.23L184.51 16.23L184.51 16.23Q183.86 16.23 183.36 16.07L183.36 16.07L183.36 16.07Q182.87 15.90 182.71 15.61L182.71 15.61L182.71 15.61Q182.42 14.43 182.22 13.34L182.22 13.34L182.22 13.34Q182.03 12.25 181.89 11.16L181.89 11.16L181.89 11.16Q181.76 10.07 181.68 8.95L181.68 8.95L181.68 8.95Q181.61 7.84 181.57 6.62L181.57 6.62L181.57 6.62Q181.30 7.04 181.01 7.72L181.01 7.72L181.01 7.72Q180.71 8.40 180.43 9.21L180.43 9.21L180.43 9.21Q180.15 10.02 179.89 10.92L179.89 10.92L179.89 10.92Q179.63 11.82 179.44 12.67L179.44 12.67L179.44 12.67Q179.24 13.52 179.13 14.29L179.13 14.29L179.13 14.29Q179.02 15.05 179.02 15.61L179.02 15.61L179.02 15.61Q179.02 15.90 179.02 16.03L179.02 16.03L179.02 16.03Q179.03 16.16 179.06 16.24ZM206.50 15.61L206.50 15.61L206.50 15.61Q206.43 15.04 206.39 14.36L206.39 14.36L206.39 14.36Q206.36 13.68 206.36 13.09L206.36 13.09L206.36 13.09Q206.36 12.15 206.42 11.29L206.42 11.29L206.42 11.29Q206.49 10.43 206.58 9.48L206.58 9.48L206.58 9.48Q206.67 8.54 206.78 7.43L206.78 7.43L206.78 7.43Q206.89 6.31 206.98 4.86L206.98 4.86L206.98 4.86Q207.16 4.86 207.50 4.96L207.50 4.96L207.50 4.96Q207.84 5.07 208.19 5.21L208.19 5.21L208.19 5.21Q208.54 5.35 208.81 5.49L208.81 5.49L208.81 5.49Q209.08 5.64 209.12 5.74L209.12 5.74L209.12 5.74Q208.88 6.29 208.69 7.18L208.69 7.18L208.69 7.18Q208.50 8.06 208.38 9.11L208.38 9.11L208.38 9.11Q208.25 10.16 208.18 11.27L208.18 11.27L208.18 11.27Q208.11 12.38 208.11 13.34L208.11 13.34L208.11 13.34Q208.11 13.79 208.12 14.22L208.12 14.22L208.12 14.22Q208.14 14.66 208.17 15.02L208.17 15.02L208.17 15.02Q208.46 14.59 208.84 13.78L208.84 13.78L208.84 13.78Q209.23 12.98 209.64 11.98L209.64 11.98L209.64 11.98Q210.06 10.99 210.47 9.91L210.47 9.91L210.47 9.91Q210.88 8.82 211.23 7.83L211.23 7.83L211.23 7.83Q211.58 6.85 211.83 6.05L211.83 6.05L211.83 6.05Q212.07 5.26 212.17 4.86L212.17 4.86L212.17 4.86Q212.35 4.86 212.71 4.96L212.71 4.96L212.71 4.96Q213.07 5.07 213.41 5.21L213.41 5.21L213.41 5.21Q213.75 5.35 214.02 5.49L214.02 5.49L214.02 5.49Q214.28 5.64 214.31 5.74L214.31 5.74L214.31 5.74Q214.07 6.29 213.88 7.18L213.88 7.18L213.88 7.18Q213.70 8.06 213.57 9.11L213.57 9.11L213.57 9.11Q213.44 10.16 213.37 11.27L213.37 11.27L213.37 11.27Q213.30 12.38 213.30 13.34L213.30 13.34L213.30 13.34Q213.30 13.75 213.31 14.15L213.31 14.15L213.31 14.15Q213.32 14.55 213.35 14.87L213.35 14.87L213.35 14.87Q213.79 13.71 214.28 12.56L214.28 12.56L214.28 12.56Q214.76 11.42 215.24 10.38L215.24 10.38L215.24 10.38Q215.71 9.34 216.16 8.43L216.16 8.43L216.16 8.43Q216.61 7.53 216.99 6.82L216.99 6.82L216.99 6.82Q217.36 6.12 217.64 5.66L217.64 5.66L217.64 5.66Q217.92 5.19 218.08 5.04L218.08 5.04L218.08 5.04Q218.40 5.08 218.74 5.27L218.74 5.27L218.74 5.27Q219.09 5.46 219.35 5.75L219.35 5.75L219.35 5.75Q218.95 6.08 218.43 6.81L218.43 6.81L218.43 6.81Q217.91 7.55 217.36 8.51L217.36 8.51L217.36 8.51Q216.82 9.48 216.26 10.57L216.26 10.57L216.26 10.57Q215.71 11.66 215.24 12.70L215.24 12.70L215.24 12.70Q214.76 13.73 214.39 14.63L214.39 14.63L214.39 14.63Q214.02 15.53 213.82 16.07L213.82 16.07L213.82 16.07Q213.46 16.24 213.11 16.24L213.11 16.24L213.11 16.24Q212.66 16.18 212.26 16.02L212.26 16.02L212.26 16.02Q211.86 15.85 211.69 15.61L211.69 15.61L211.69 15.61Q211.65 15.39 211.62 15.09L211.62 15.09L211.62 15.09Q211.60 14.78 211.58 14.49L211.58 14.49L211.58 14.49Q211.57 14.20 211.56 13.92L211.56 13.92L211.56 13.92Q211.55 13.65 211.55 13.45L211.55 13.45L211.55 13.45Q211.55 12.21 211.65 10.91L211.65 10.91L211.65 10.91Q211.75 9.62 211.89 8.13L211.89 8.13L211.89 8.13Q211.57 9.09 211.18 10.18L211.18 10.18L211.18 10.18Q210.78 11.27 210.36 12.34L210.36 12.34L210.36 12.34Q209.93 13.41 209.49 14.38L209.49 14.38L209.49 14.38Q209.05 15.36 208.63 16.07L208.63 16.07L208.63 16.07Q208.26 16.24 207.91 16.24L207.91 16.24L207.91 16.24Q207.47 16.18 207.07 16.02L207.07 16.02L207.07 16.02Q206.67 15.85 206.50 15.61ZM230.51 14.36L230.51 14.36L230.51 14.36Q230.51 13.78 230.71 12.85L230.71 12.85L230.71 12.85Q230.90 11.93 231.22 10.88L231.22 10.88L231.22 10.88Q230.30 10.95 229.37 11.06L229.37 11.06L229.37 11.06Q228.44 11.17 227.75 11.19L227.75 11.19L227.75 11.19Q227.12 12.66 226.75 13.89L226.75 13.89L226.75 13.89Q226.38 15.13 226.17 16.31L226.17 16.31L226.17 16.31Q225.64 16.18 225.29 15.87L225.29 15.87L225.29 15.87Q224.94 15.55 224.64 15.08L224.64 15.08L224.64 15.08Q224.76 14.85 224.90 14.50L224.90 14.50L224.90 14.50Q225.05 14.15 225.25 13.66L225.25 13.66L225.25 13.66Q225.46 13.16 225.72 12.50L225.72 12.50L225.72 12.50Q225.97 11.83 226.31 10.95L226.31 10.95L226.31 10.95Q225.85 10.75 225.69 10.40L225.69 10.40L225.69 10.40Q225.76 10.35 226.01 10.28L226.01 10.28L226.01 10.28Q226.25 10.22 226.62 10.15L226.62 10.15L226.80 9.70L226.80 9.70Q227.09 8.95 227.28 8.43L227.28 8.43L227.28 8.43Q227.47 7.91 227.60 7.41L227.60 7.41L227.60 7.41Q227.74 6.92 227.86 6.31L227.86 6.31L227.86 6.31Q227.98 5.71 228.14 4.79L228.14 4.79L228.14 4.79Q228.73 4.90 229.22 5.31L229.22 5.31L229.22 5.31Q229.70 5.71 230.05 6.29L230.05 6.29L230.05 6.29Q229.92 6.45 229.74 6.79L229.74 6.79L229.74 6.79Q229.56 7.13 229.34 7.59L229.34 7.59L229.34 7.59Q229.12 8.06 228.87 8.64L228.87 8.64L228.87 8.64Q228.62 9.23 228.33 9.87L228.33 9.87L228.33 9.87Q229.19 9.76 230.08 9.66L230.08 9.66L230.08 9.66Q230.97 9.56 231.66 9.52L231.66 9.52L231.66 9.52Q231.91 8.79 232.18 8.10L232.18 8.10L232.18 8.10Q232.46 7.41 232.72 6.83L232.72 6.83L232.72 6.83Q232.99 6.26 233.23 5.82L233.23 5.82L233.23 5.82Q233.48 5.39 233.67 5.18L233.67 5.18L233.67 5.18Q233.81 5.19 234.04 5.29L234.04 5.29L234.04 5.29Q234.28 5.38 234.51 5.50L234.51 5.50L234.51 5.50Q234.75 5.63 234.95 5.78L234.95 5.78L234.95 5.78Q235.14 5.92 235.21 6.05L235.21 6.05L235.21 6.05Q234.96 6.29 234.71 6.66L234.71 6.66L234.71 6.66Q234.46 7.04 234.21 7.53L234.21 7.53L234.21 7.53Q233.97 8.02 233.73 8.60L233.73 8.60L233.73 8.60Q233.49 9.17 233.28 9.79L233.28 9.79L233.28 9.79Q233.56 10.04 233.56 10.42L233.56 10.42L233.56 10.42Q233.56 10.68 233.45 10.91L233.45 10.91L233.45 10.91Q233.32 10.88 233.20 10.87L233.20 10.87L233.20 10.87Q233.07 10.86 232.93 10.85L232.93 10.85L232.93 10.85Q232.69 11.61 232.50 12.35L232.50 12.35L232.50 12.35Q232.30 13.09 232.17 13.76L232.17 13.76L232.17 13.76Q232.04 14.43 231.96 14.99L231.96 14.99L231.96 14.99Q231.88 15.55 231.88 15.93L231.88 15.93L231.88 15.93Q231.88 16.07 231.89 16.16L231.89 16.16L231.89 16.16Q231.90 16.24 231.91 16.30L231.91 16.30L231.91 16.30Q231.60 16.28 231.46 16.19L231.46 16.19L231.46 16.19Q231.32 16.10 231.25 16.00L231.25 16.00L231.25 16.00Q231.18 15.89 231.13 15.79L231.13 15.79L231.13 15.79Q231.07 15.68 230.94 15.62L230.94 15.62L230.94 15.62Q230.85 15.58 230.76 15.43L230.76 15.43L230.76 15.43Q230.68 15.27 230.62 15.08L230.62 15.08L230.62 15.08Q230.57 14.88 230.54 14.69L230.54 14.69L230.54 14.69Q230.51 14.49 230.51 14.36ZM241.92 14.38L241.92 14.38L241.92 14.38Q241.92 13.87 242.08 13.07L242.08 13.07L242.08 13.07Q242.24 12.26 242.50 11.33L242.50 11.33L242.50 11.33Q242.76 10.40 243.10 9.43L243.10 9.43L243.10 9.43Q243.43 8.46 243.78 7.60L243.78 7.60L243.78 7.60Q244.13 6.75 244.47 6.10L244.47 6.10L244.47 6.10Q244.80 5.46 245.07 5.18L245.07 5.18L245.07 5.18Q245.21 5.19 245.44 5.29L245.44 5.29L245.44 5.29Q245.67 5.38 245.91 5.50L245.91 5.50L245.91 5.50Q246.15 5.63 246.34 5.78L246.34 5.78L246.34 5.78Q246.54 5.92 246.60 6.05L246.60 6.05L246.60 6.05Q246.19 6.41 245.79 7.15L245.79 7.15L245.79 7.15Q245.39 7.88 245.02 8.82L245.02 8.82L245.02 8.82Q244.65 9.76 244.33 10.80L244.33 10.80L244.33 10.80Q244.01 11.84 243.77 12.82L243.77 12.82L243.77 12.82Q243.53 13.80 243.40 14.64L243.40 14.64L243.40 14.64Q243.26 15.48 243.26 16.00L243.26 16.00L243.26 16.00Q243.26 16.24 243.31 16.30L243.31 16.30L243.31 16.30Q243.00 16.28 242.86 16.19L242.86 16.19L242.86 16.19Q242.72 16.10 242.64 16.00L242.64 16.00L242.64 16.00Q242.56 15.89 242.50 15.79L242.50 15.79L242.50 15.79Q242.44 15.68 242.31 15.62L242.31 15.62L242.31 15.62Q242.21 15.58 242.14 15.43L242.14 15.43L242.14 15.43Q242.07 15.27 242.02 15.09L242.02 15.09L242.02 15.09Q241.98 14.90 241.95 14.70L241.95 14.70L241.95 14.70Q241.92 14.50 241.92 14.38ZM258.12 14.38L258.12 14.38L258.12 14.38Q258.47 14.98 258.47 15.54L258.47 15.54L258.47 15.54Q258.47 15.67 258.45 15.77L258.45 15.77L258.45 15.77Q258.43 15.88 258.40 15.99L258.40 15.99L258.40 15.99Q258.16 15.96 257.90 15.95L257.90 15.95L257.90 15.95Q257.64 15.93 257.36 15.93L257.36 15.93L257.36 15.93Q257.03 15.93 256.68 15.95L256.68 15.95L256.68 15.95Q256.34 15.97 255.92 16.02L255.92 16.02L255.92 16.02Q255.50 16.06 254.98 16.13L254.98 16.13L254.98 16.13Q254.46 16.20 253.78 16.31L253.78 16.31L253.78 16.31Q253.46 16.20 253.13 15.87L253.13 15.87L253.13 15.87Q252.81 15.54 252.53 15.08L252.53 15.08L252.53 15.08Q252.67 14.77 252.88 14.31L252.88 14.31L252.88 14.31Q253.09 13.86 253.37 13.21L253.37 13.21L253.37 13.21Q253.65 12.56 253.99 11.68L253.99 11.68L253.99 11.68Q254.34 10.81 254.73 9.66L254.73 9.66L254.73 9.66Q254.98 8.90 255.16 8.33L255.16 8.33L255.16 8.33Q255.35 7.76 255.49 7.22L255.49 7.22L255.49 7.22Q255.64 6.68 255.78 6.09L255.78 6.09L255.78 6.09Q255.92 5.50 256.09 4.73L256.09 4.73L256.09 4.73Q256.65 4.84 257.06 5.14L257.06 5.14L257.06 5.14Q257.47 5.45 257.85 6.01L257.85 6.01L257.85 6.01Q257.74 6.19 257.56 6.59L257.56 6.59L257.56 6.59Q257.38 7 257.13 7.58L257.13 7.58L257.13 7.58Q256.89 8.16 256.59 8.90L256.59 8.90L256.59 8.90Q256.30 9.63 255.98 10.47L255.98 10.47L255.98 10.47Q255.67 11.30 255.37 12.03L255.37 12.03L255.37 12.03Q255.08 12.75 254.85 13.34L254.85 13.34L254.85 13.34Q254.62 13.93 254.48 14.35L254.48 14.35L254.48 14.35Q254.34 14.77 254.34 14.98L254.34 14.98L254.34 14.98Q254.56 14.97 254.74 14.95L254.74 14.95L254.74 14.95Q254.93 14.94 255.12 14.90L255.12 14.90L255.12 14.90Q255.32 14.87 255.55 14.82L255.55 14.82L255.55 14.82Q255.78 14.77 256.10 14.69L256.10 14.69L256.10 14.69Q256.38 14.62 256.62 14.57L256.62 14.57L256.62 14.57Q256.86 14.52 257.09 14.48L257.09 14.48L257.09 14.48Q257.32 14.45 257.56 14.43L257.56 14.43L257.56 14.43Q257.81 14.41 258.12 14.38ZM272.54 9.21L272.54 9.21L272.54 9.21Q273 9.21 273.26 9.46L273.26 9.46L273.26 9.46Q273.52 9.72 273.52 10.16L273.52 10.16L273.52 10.16Q273.52 10.28 273.50 10.39L273.50 10.39L273.50 10.39Q273.48 10.51 273.45 10.60L273.45 10.60L273.45 10.60Q273.27 10.57 273.04 10.55L273.04 10.55L273.04 10.55Q272.82 10.53 272.51 10.53L272.51 10.53L272.51 10.53Q271.91 10.53 271.29 10.63L271.29 10.63L271.29 10.63Q270.68 10.74 270.12 10.81L270.12 10.81L270.12 10.81Q269.79 11.55 269.53 12.24L269.53 12.24L269.53 12.24Q269.26 12.94 269.07 13.51L269.07 13.51L269.07 13.51Q268.88 14.08 268.78 14.50L268.78 14.50L268.78 14.50Q268.67 14.92 268.66 15.13L268.66 15.13L268.66 15.13Q269.79 14.90 270.95 14.73L270.95 14.73L270.95 14.73Q272.10 14.56 273.38 14.48L273.38 14.48L273.38 14.48Q273.53 14.71 273.64 14.99L273.64 14.99L273.64 14.99Q273.74 15.27 273.74 15.60L273.74 15.60L273.74 15.60Q273.74 15.68 273.74 15.78L273.74 15.78L273.74 15.78Q273.74 15.88 273.71 15.97L273.71 15.97L273.71 15.97Q273.32 15.96 272.89 15.95L272.89 15.95L272.89 15.95Q272.45 15.95 271.75 15.95L271.75 15.95L271.75 15.95Q271.29 15.95 270.88 15.97L270.88 15.97L270.88 15.97Q270.47 15.99 270.05 16.03L270.05 16.03L270.05 16.03Q269.63 16.07 269.16 16.14L269.16 16.14L269.16 16.14Q268.69 16.21 268.10 16.31L268.10 16.31L268.10 16.31Q267.46 16.06 266.85 15.08L266.85 15.08L266.85 15.08Q267.09 14.57 267.52 13.54L267.52 13.54L267.52 13.54Q267.95 12.52 268.60 10.79L268.60 10.79L268.60 10.79Q267.97 10.60 267.78 10.09L267.78 10.09L267.78 10.09Q267.85 10.02 268.18 9.92L268.18 9.92L268.18 9.92Q268.52 9.81 269.01 9.70L269.01 9.70L269.01 9.70Q269.22 9.16 269.37 8.75L269.37 8.75L269.37 8.75Q269.51 8.34 269.63 7.99L269.63 7.99L269.63 7.99Q269.74 7.63 269.83 7.29L269.83 7.29L269.83 7.29Q269.92 6.94 270.00 6.54L270.00 6.54L270.00 6.54Q269.51 6.51 269.23 6.27L269.23 6.27L269.23 6.27Q268.95 6.02 268.95 5.63L268.95 5.63L268.95 5.63Q268.95 5.52 268.99 5.36L268.99 5.36L268.99 5.36Q269.02 5.21 269.07 5.10L269.07 5.10L269.07 5.10Q269.35 5.14 269.60 5.15L269.60 5.15L269.60 5.15Q269.86 5.17 270.28 5.17L270.28 5.17L270.28 5.17Q271.17 5.17 271.94 5.12L271.94 5.12L271.94 5.12Q272.71 5.07 273.33 5.01L273.33 5.01L273.33 5.01Q273.95 4.96 274.40 4.91L274.40 4.91L274.40 4.91Q274.85 4.86 275.09 4.86L275.09 4.86L275.09 4.86Q275.41 4.86 275.66 5.19L275.66 5.19L275.66 5.19Q275.91 5.53 276.04 6.15L276.04 6.15L276.04 6.15Q275.60 6.10 275.33 6.09L275.33 6.09L275.33 6.09Q275.06 6.08 274.85 6.08L274.85 6.08L274.85 6.08Q274.08 6.08 273.44 6.15L273.44 6.15L273.44 6.15Q272.80 6.23 272.22 6.31L272.22 6.31L272.22 6.31Q272.13 6.44 272.03 6.64L272.03 6.64L272.03 6.64Q271.92 6.83 271.75 7.18L271.75 7.18L271.75 7.18Q271.59 7.53 271.34 8.06L271.34 8.06L271.34 8.06Q271.10 8.60 270.75 9.39L270.75 9.39L270.75 9.39Q271.28 9.31 271.75 9.26L271.75 9.26L271.75 9.26Q272.22 9.21 272.54 9.21ZM295.39 6.69L295.39 6.69L295.39 6.69Q294.83 6.69 294.52 6.38L294.52 6.38L294.52 6.38Q294.22 6.06 294.22 5.61L294.22 5.61L294.22 5.61Q294.22 5.50 294.26 5.35L294.26 5.35L294.26 5.35Q294.29 5.19 294.35 5.08L294.35 5.08L294.35 5.08Q294.53 5.17 294.89 5.20L294.89 5.20L294.89 5.20Q295.25 5.24 295.72 5.24L295.72 5.24L295.72 5.24Q296.44 5.24 297.34 5.17L297.34 5.17L297.34 5.17Q298.24 5.11 299.07 5.04L299.07 5.04L299.07 5.04Q299.89 4.97 300.52 4.91L300.52 4.91L300.52 4.91Q301.15 4.84 301.34 4.84L301.34 4.84L301.34 4.84Q301.85 4.84 302.08 5.23L302.08 5.23L302.08 5.23Q302.32 5.61 302.43 6.26L302.43 6.26L302.43 6.26Q302.06 6.23 301.71 6.21L301.71 6.21L301.71 6.21Q301.35 6.19 301.10 6.19L301.10 6.19L301.10 6.19Q300.65 6.19 300.19 6.22L300.19 6.22L300.19 6.22Q299.74 6.24 299.28 6.30L299.28 6.30L299.28 6.30Q299.08 6.71 298.84 7.26L298.84 7.26L298.84 7.26Q298.61 7.81 298.38 8.41L298.38 8.41L298.38 8.41Q298.14 9.02 297.93 9.61L297.93 9.61L297.93 9.61Q297.72 10.21 297.57 10.68L297.57 10.68L297.57 10.68Q297.26 11.61 297.03 12.39L297.03 12.39L297.03 12.39Q296.80 13.17 296.63 13.85L296.63 13.85L296.63 13.85Q296.45 14.53 296.32 15.15L296.32 15.15L296.32 15.15Q296.20 15.76 296.10 16.35L296.10 16.35L296.10 16.35Q295.16 16.21 294.53 15.18L294.53 15.18L294.53 15.18Q294.64 14.74 294.81 14.23L294.81 14.23L294.81 14.23Q294.97 13.72 295.18 13.07L295.18 13.07L295.18 13.07Q295.40 12.42 295.69 11.59L295.69 11.59L295.69 11.59Q295.99 10.77 296.37 9.72L296.37 9.72L296.37 9.72Q296.51 9.32 296.66 8.90L296.66 8.90L296.66 8.90Q296.81 8.47 296.96 8.05L296.96 8.05L296.96 8.05Q297.11 7.63 297.23 7.24L297.23 7.24L297.23 7.24Q297.35 6.85 297.43 6.52L297.43 6.52L297.43 6.52Q296.84 6.59 296.32 6.64L296.32 6.64L296.32 6.64Q295.79 6.69 295.39 6.69ZM317.37 7.46L317.37 7.46L317.37 7.46Q317.37 8.13 317.06 8.73L317.06 8.73L317.06 8.73Q316.76 9.32 316.23 9.79L316.23 9.79L316.23 9.79Q315.70 10.26 314.99 10.58L314.99 10.58L314.99 10.58Q314.27 10.91 313.43 11.02L313.43 11.02L313.43 11.02Q313.64 11.65 313.94 12.31L313.94 12.31L313.94 12.31Q314.24 12.98 314.59 13.59L314.59 13.59L314.59 13.59Q314.94 14.21 315.32 14.73L315.32 14.73L315.32 14.73Q315.70 15.25 316.06 15.58L316.06 15.58L316.06 15.58Q315.99 15.72 315.86 15.86L315.86 15.86L315.86 15.86Q315.73 16.00 315.55 16.12L315.55 16.12L315.55 16.12Q315.38 16.24 315.19 16.32L315.19 16.32L315.19 16.32Q315 16.39 314.83 16.39L314.83 16.39L314.83 16.39Q314.52 16.39 314.24 16.10L314.24 16.10L314.24 16.10Q313.96 15.81 313.68 15.17L313.68 15.17L313.68 15.17Q313.39 14.53 313.07 13.52L313.07 13.52L313.07 13.52Q312.76 12.50 312.38 11.07L312.38 11.07L312.38 11.07Q312.23 11.07 312.07 11.07L312.07 11.07L312.07 11.07Q311.92 11.07 311.84 11.05L311.84 11.05L311.84 11.05Q311.74 10.99 311.63 10.85L311.63 10.85L311.63 10.85Q311.25 11.66 310.95 12.38L310.95 12.38L310.95 12.38Q310.66 13.09 310.43 13.76L310.43 13.76L310.43 13.76Q310.20 14.42 310.02 15.04L310.02 15.04L310.02 15.04Q309.85 15.67 309.72 16.31L309.72 16.31L309.72 16.31Q309.25 16.20 308.90 15.90L308.90 15.90L308.90 15.90Q308.55 15.61 308.24 15.08L308.24 15.08L308.24 15.08Q308.29 14.95 308.36 14.83L308.36 14.83L308.36 14.83Q308.42 14.71 308.52 14.50L308.52 14.50L308.52 14.50Q308.62 14.28 308.76 13.94L308.76 13.94L308.76 13.94Q308.91 13.61 309.16 13.05L309.16 13.05L309.16 13.05Q309.40 12.49 309.74 11.68L309.74 11.68L309.74 11.68Q310.09 10.86 310.58 9.70L310.58 9.70L310.58 9.70Q310.80 9.18 310.96 8.79L310.96 8.79L310.96 8.79Q311.12 8.40 311.25 8.04L311.25 8.04L311.25 8.04Q311.37 7.69 311.48 7.33L311.48 7.33L311.48 7.33Q311.58 6.97 311.70 6.51L311.70 6.51L311.70 6.51Q311.05 6.73 310.50 7.01L310.50 7.01L310.50 7.01Q309.95 7.28 309.58 7.59L309.58 7.59L309.58 7.59Q309.46 7.50 309.32 7.34L309.32 7.34L309.32 7.34Q309.19 7.17 309.08 6.96L309.08 6.96L309.08 6.96Q308.97 6.76 308.88 6.55L308.88 6.55L308.88 6.55Q308.80 6.34 308.78 6.17L308.78 6.17L308.78 6.17Q309.20 5.89 309.81 5.66L309.81 5.66L309.81 5.66Q310.42 5.42 311.11 5.24L311.11 5.24L311.11 5.24Q311.79 5.07 312.51 4.97L312.51 4.97L312.51 4.97Q313.22 4.87 313.84 4.87L313.84 4.87L313.84 4.87Q315.52 4.87 316.44 5.56L316.44 5.56L316.44 5.56Q317.37 6.26 317.37 7.46ZM313.78 6.02L313.95 6.29L313.95 6.29Q313.85 6.41 313.64 6.79L313.64 6.79L313.64 6.79Q313.43 7.17 313.16 7.69L313.16 7.69L313.16 7.69Q312.89 8.22 312.59 8.83L312.59 8.83L312.59 8.83Q312.28 9.45 312.00 10.05L312.00 10.05L312.00 10.05Q313.05 10.05 313.94 9.86L313.94 9.86L313.94 9.86Q314.82 9.66 315.46 9.30L315.46 9.30L315.46 9.30Q316.11 8.95 316.46 8.46L316.46 8.46L316.46 8.46Q316.82 7.98 316.82 7.39L316.82 7.39L316.82 7.39Q316.82 6.69 316.32 6.32L316.32 6.32L316.32 6.32Q315.81 5.95 314.76 5.95L314.76 5.95L314.76 5.95Q314.52 5.95 314.29 5.97L314.29 5.97L314.29 5.97Q314.05 5.99 313.78 6.02L313.78 6.02ZM325.15 16.24L325.15 16.24L325.15 16.24Q324.48 16.04 324.22 15.85L324.22 15.85L324.22 15.85Q323.96 15.65 323.96 15.36L323.96 15.36L323.96 15.36Q323.96 15.13 324.09 14.73L324.09 14.73L324.09 14.73Q324.21 14.32 324.46 13.77L324.46 13.77L324.46 13.77Q324.70 13.22 325.05 12.54L325.05 12.54L325.05 12.54Q325.39 11.87 325.82 11.10L325.82 11.10L325.82 11.10Q325.46 11.09 325.17 11.08L325.17 11.08L325.17 11.08Q324.88 11.07 324.70 11.07L324.70 11.07L324.70 11.07Q324.79 10.86 325.18 10.71L325.18 10.71L325.18 10.71Q325.57 10.56 326.21 10.44L326.21 10.44L326.21 10.44Q326.76 9.53 327.38 8.71L327.38 8.71L327.38 8.71Q328.01 7.88 328.64 7.19L328.64 7.19L328.64 7.19Q329.27 6.50 329.90 5.97L329.90 5.97L329.90 5.97Q330.53 5.45 331.10 5.14L331.10 5.14L331.10 5.14Q331.11 5.04 331.12 4.97L331.12 4.97L331.12 4.97Q331.13 4.90 331.13 4.87L331.13 4.87L331.13 4.87Q331.32 4.87 331.65 4.97L331.65 4.97L331.65 4.97Q331.98 5.07 332.30 5.21L332.30 5.21L332.30 5.21Q332.61 5.35 332.86 5.49L332.86 5.49L332.86 5.49Q333.10 5.64 333.13 5.74L333.13 5.74L333.13 5.74Q332.67 6.55 332.22 8.17L332.22 8.17L332.22 8.17Q331.77 9.79 331.48 12.04L331.48 12.04L331.48 12.04Q331.41 12.60 331.36 13.31L331.36 13.31L331.36 13.31Q331.31 14.03 331.31 14.91L331.31 14.91L331.31 14.91Q331.31 15.22 331.31 15.54L331.31 15.54L331.31 15.54Q331.31 15.86 331.34 16.21L331.34 16.21L331.34 16.21Q331.31 16.23 331.28 16.23L331.28 16.23L331.28 16.23Q331.25 16.23 331.17 16.23L331.17 16.23L331.17 16.23Q330.97 16.23 330.71 16.16L330.71 16.16L330.71 16.16Q330.46 16.10 330.21 16.01L330.21 16.01L330.21 16.01Q329.97 15.92 329.79 15.81L329.79 15.81L329.79 15.81Q329.62 15.69 329.57 15.61L329.57 15.61L329.57 15.61Q329.56 15.43 329.56 15.25L329.56 15.25L329.56 15.25Q329.56 15.08 329.56 14.88L329.56 14.88L329.56 14.88Q329.56 14.01 329.62 13.12L329.62 13.12L329.62 13.12Q329.69 12.22 329.84 11.27L329.84 11.27L329.84 11.27Q329.64 11.26 329.32 11.23L329.32 11.23L329.32 11.23Q329 11.21 328.60 11.20L328.60 11.20L328.60 11.20Q328.20 11.19 327.75 11.16L327.75 11.16L327.75 11.16Q327.29 11.14 326.86 11.13L326.86 11.13L326.86 11.13Q326.52 11.76 326.23 12.38L326.23 12.38L326.23 12.38Q325.93 13.01 325.72 13.64L325.72 13.64L325.72 13.64Q325.49 14.31 325.34 14.98L325.34 14.98L325.34 14.98Q325.19 15.65 325.15 16.24ZM330.55 7.83L330.55 7.83L330.55 7.83Q330.61 7.63 330.69 7.29L330.69 7.29L330.69 7.29Q330.76 6.94 330.83 6.57L330.83 6.57L330.83 6.57Q330.48 6.69 330.06 7.03L330.06 7.03L330.06 7.03Q329.63 7.36 329.18 7.86L329.18 7.86L329.18 7.86Q328.72 8.36 328.25 8.98L328.25 8.98L328.25 8.98Q327.78 9.60 327.35 10.30L327.35 10.30L327.35 10.30Q328.52 10.21 330.02 10.18L330.02 10.18L330.02 10.18Q330.13 9.59 330.27 9.01L330.27 9.01L330.27 9.01Q330.40 8.43 330.55 7.83ZM344.41 16.07L344.41 16.07L344.41 16.07Q344.09 16.24 343.73 16.24L343.73 16.24L343.73 16.24Q343.28 16.18 342.87 16.02L342.87 16.02L342.87 16.02Q342.45 15.85 342.26 15.61L342.26 15.61L342.26 15.61Q342.15 14.92 342.08 14.35L342.08 14.35L342.08 14.35Q342.01 13.78 341.96 13.27L341.96 13.27L341.96 13.27Q341.92 12.75 341.91 12.29L341.91 12.29L341.91 12.29Q341.89 11.82 341.89 11.34L341.89 11.34L341.89 11.34Q341.89 10.71 341.91 10.01L341.91 10.01L341.91 10.01Q341.92 9.31 341.94 8.52L341.94 8.52L341.94 8.52Q341.96 7.73 341.98 6.82L341.98 6.82L341.98 6.82Q341.99 5.92 341.99 4.86L341.99 4.86L341.99 4.86Q342.17 4.86 342.54 4.96L342.54 4.96L342.54 4.96Q342.90 5.07 343.26 5.21L343.26 5.21L343.26 5.21Q343.62 5.35 343.90 5.49L343.90 5.49L343.90 5.49Q344.18 5.64 344.20 5.74L344.20 5.74L344.20 5.74Q344.06 6.13 343.96 6.76L343.96 6.76L343.96 6.76Q343.85 7.39 343.79 8.16L343.79 8.16L343.79 8.16Q343.73 8.93 343.70 9.79L343.70 9.79L343.70 9.79Q343.67 10.64 343.67 11.48L343.67 11.48L343.67 11.48Q343.67 12.11 343.69 12.61L343.69 12.61L343.69 12.61Q343.70 13.10 343.72 13.50L343.72 13.50L343.72 13.50Q343.74 13.90 343.78 14.25L343.78 14.25L343.78 14.25Q343.83 14.59 343.88 14.92L343.88 14.92L343.88 14.92Q344.27 13.73 344.74 12.54L344.74 12.54L344.74 12.54Q345.21 11.35 345.71 10.25L345.71 10.25L345.71 10.25Q346.21 9.16 346.70 8.20L346.70 8.20L346.70 8.20Q347.19 7.25 347.63 6.54L347.63 6.54L347.63 6.54Q348.07 5.84 348.42 5.43L348.42 5.43L348.42 5.43Q348.77 5.01 348.99 4.98L348.99 4.98L348.99 4.98Q349.15 5.01 349.32 5.10L349.32 5.10L349.32 5.10Q349.50 5.19 349.65 5.32L349.65 5.32L349.65 5.32Q349.80 5.45 349.93 5.60L349.93 5.60L349.93 5.60Q350.06 5.75 350.13 5.91L350.13 5.91L350.13 5.91Q349.61 6.09 349.01 6.76L349.01 6.76L349.01 6.76Q348.42 7.43 347.82 8.38L347.82 8.38L347.82 8.38Q347.21 9.32 346.65 10.44L346.65 10.44L346.65 10.44Q346.08 11.55 345.63 12.61L345.63 12.61L345.63 12.61Q345.17 13.68 344.85 14.60L344.85 14.60L344.85 14.60Q344.53 15.53 344.41 16.07ZM361.38 9.21L361.38 9.21L361.38 9.21Q361.84 9.21 362.10 9.46L362.10 9.46L362.10 9.46Q362.36 9.72 362.36 10.16L362.36 10.16L362.36 10.16Q362.36 10.28 362.34 10.39L362.34 10.39L362.34 10.39Q362.32 10.51 362.29 10.60L362.29 10.60L362.29 10.60Q362.11 10.57 361.89 10.55L361.89 10.55L361.89 10.55Q361.66 10.53 361.35 10.53L361.35 10.53L361.35 10.53Q360.75 10.53 360.14 10.63L360.14 10.63L360.14 10.63Q359.52 10.74 358.96 10.81L358.96 10.81L358.96 10.81Q358.64 11.55 358.37 12.24L358.37 12.24L358.37 12.24Q358.11 12.94 357.92 13.51L357.92 13.51L357.92 13.51Q357.73 14.08 357.62 14.50L357.62 14.50L357.62 14.50Q357.52 14.92 357.50 15.13L357.50 15.13L357.50 15.13Q358.64 14.90 359.79 14.73L359.79 14.73L359.79 14.73Q360.95 14.56 362.22 14.48L362.22 14.48L362.22 14.48Q362.38 14.71 362.48 14.99L362.48 14.99L362.48 14.99Q362.59 15.27 362.59 15.60L362.59 15.60L362.59 15.60Q362.59 15.68 362.59 15.78L362.59 15.78L362.59 15.78Q362.59 15.88 362.56 15.97L362.56 15.97L362.56 15.97Q362.17 15.96 361.73 15.95L361.73 15.95L361.73 15.95Q361.30 15.95 360.60 15.95L360.60 15.95L360.60 15.95Q360.14 15.95 359.72 15.97L359.72 15.97L359.72 15.97Q359.31 15.99 358.89 16.03L358.89 16.03L358.89 16.03Q358.47 16.07 358.00 16.14L358.00 16.14L358.00 16.14Q357.53 16.21 356.94 16.31L356.94 16.31L356.94 16.31Q356.30 16.06 355.70 15.08L355.70 15.08L355.70 15.08Q355.94 14.57 356.36 13.54L356.36 13.54L356.36 13.54Q356.79 12.52 357.45 10.79L357.45 10.79L357.45 10.79Q356.82 10.60 356.62 10.09L356.62 10.09L356.62 10.09Q356.69 10.02 357.03 9.92L357.03 9.92L357.03 9.92Q357.36 9.81 357.85 9.70L357.85 9.70L357.85 9.70Q358.06 9.16 358.21 8.75L358.21 8.75L358.21 8.75Q358.36 8.34 358.47 7.99L358.47 7.99L358.47 7.99Q358.58 7.63 358.67 7.29L358.67 7.29L358.67 7.29Q358.76 6.94 358.85 6.54L358.85 6.54L358.85 6.54Q358.36 6.51 358.08 6.27L358.08 6.27L358.08 6.27Q357.80 6.02 357.80 5.63L357.80 5.63L357.80 5.63Q357.80 5.52 357.83 5.36L357.83 5.36L357.83 5.36Q357.87 5.21 357.91 5.10L357.91 5.10L357.91 5.10Q358.19 5.14 358.45 5.15L358.45 5.15L358.45 5.15Q358.71 5.17 359.13 5.17L359.13 5.17L359.13 5.17Q360.01 5.17 360.78 5.12L360.78 5.12L360.78 5.12Q361.55 5.07 362.17 5.01L362.17 5.01L362.17 5.01Q362.80 4.96 363.24 4.91L363.24 4.91L363.24 4.91Q363.69 4.86 363.93 4.86L363.93 4.86L363.93 4.86Q364.25 4.86 364.50 5.19L364.50 5.19L364.50 5.19Q364.76 5.53 364.88 6.15L364.88 6.15L364.88 6.15Q364.45 6.10 364.17 6.09L364.17 6.09L364.17 6.09Q363.90 6.08 363.69 6.08L363.69 6.08L363.69 6.08Q362.92 6.08 362.28 6.15L362.28 6.15L362.28 6.15Q361.65 6.23 361.06 6.31L361.06 6.31L361.06 6.31Q360.98 6.44 360.87 6.64L360.87 6.64L360.87 6.64Q360.77 6.83 360.60 7.18L360.60 7.18L360.60 7.18Q360.43 7.53 360.19 8.06L360.19 8.06L360.19 8.06Q359.94 8.60 359.59 9.39L359.59 9.39L359.59 9.39Q360.12 9.31 360.59 9.26L360.59 9.26L360.59 9.26Q361.06 9.21 361.38 9.21ZM376.33 14.38L376.33 14.38L376.33 14.38Q376.68 14.98 376.68 15.54L376.68 15.54L376.68 15.54Q376.68 15.67 376.66 15.77L376.66 15.77L376.66 15.77Q376.64 15.88 376.61 15.99L376.61 15.99L376.61 15.99Q376.38 15.96 376.12 15.95L376.12 15.95L376.12 15.95Q375.86 15.93 375.58 15.93L375.58 15.93L375.58 15.93Q375.24 15.93 374.90 15.95L374.90 15.95L374.90 15.95Q374.56 15.97 374.14 16.02L374.14 16.02L374.14 16.02Q373.72 16.06 373.20 16.13L373.20 16.13L373.20 16.13Q372.68 16.20 371.99 16.31L371.99 16.31L371.99 16.31Q371.67 16.20 371.35 15.87L371.35 15.87L371.35 15.87Q371.03 15.54 370.75 15.08L370.75 15.08L370.75 15.08Q370.89 14.77 371.10 14.31L371.10 14.31L371.10 14.31Q371.31 13.86 371.59 13.21L371.59 13.21L371.59 13.21Q371.87 12.56 372.21 11.68L372.21 11.68L372.21 11.68Q372.55 10.81 372.95 9.66L372.95 9.66L372.95 9.66Q373.20 8.90 373.38 8.33L373.38 8.33L373.38 8.33Q373.56 7.76 373.71 7.22L373.71 7.22L373.71 7.22Q373.86 6.68 374.00 6.09L374.00 6.09L374.00 6.09Q374.14 5.50 374.30 4.73L374.30 4.73L374.30 4.73Q374.86 4.84 375.28 5.14L375.28 5.14L375.28 5.14Q375.69 5.45 376.07 6.01L376.07 6.01L376.07 6.01Q375.96 6.19 375.77 6.59L375.77 6.59L375.77 6.59Q375.59 7 375.35 7.58L375.35 7.58L375.35 7.58Q375.10 8.16 374.81 8.90L374.81 8.90L374.81 8.90Q374.51 9.63 374.19 10.47L374.19 10.47L374.19 10.47Q373.88 11.30 373.59 12.03L373.59 12.03L373.59 12.03Q373.30 12.75 373.06 13.34L373.06 13.34L373.06 13.34Q372.83 13.93 372.69 14.35L372.69 14.35L372.69 14.35Q372.55 14.77 372.55 14.98L372.55 14.98L372.55 14.98Q372.78 14.97 372.96 14.95L372.96 14.95L372.96 14.95Q373.14 14.94 373.34 14.90L373.34 14.90L373.34 14.90Q373.53 14.87 373.76 14.82L373.76 14.82L373.76 14.82Q374.00 14.77 374.32 14.69L374.32 14.69L374.32 14.69Q374.60 14.62 374.84 14.57L374.84 14.57L374.84 14.57Q375.07 14.52 375.31 14.48L375.31 14.48L375.31 14.48Q375.54 14.45 375.78 14.43L375.78 14.43L375.78 14.43Q376.03 14.41 376.33 14.38ZM385.29 14.38L385.29 14.38L385.29 14.38Q385.29 13.87 385.45 13.07L385.45 13.07L385.45 13.07Q385.62 12.26 385.88 11.33L385.88 11.33L385.88 11.33Q386.13 10.40 386.47 9.43L386.47 9.43L386.47 9.43Q386.81 8.46 387.16 7.60L387.16 7.60L387.16 7.60Q387.51 6.75 387.84 6.10L387.84 6.10L387.84 6.10Q388.18 5.46 388.44 5.18L388.44 5.18L388.44 5.18Q388.58 5.19 388.81 5.29L388.81 5.29L388.81 5.29Q389.05 5.38 389.28 5.50L389.28 5.50L389.28 5.50Q389.52 5.63 389.72 5.78L389.72 5.78L389.72 5.78Q389.91 5.92 389.97 6.05L389.97 6.05L389.97 6.05Q389.56 6.41 389.16 7.15L389.16 7.15L389.16 7.15Q388.77 7.88 388.39 8.82L388.39 8.82L388.39 8.82Q388.02 9.76 387.70 10.80L387.70 10.80L387.70 10.80Q387.38 11.84 387.14 12.82L387.14 12.82L387.14 12.82Q386.90 13.80 386.77 14.64L386.77 14.64L386.77 14.64Q386.64 15.48 386.64 16.00L386.64 16.00L386.64 16.00Q386.64 16.24 386.68 16.30L386.68 16.30L386.68 16.30Q386.37 16.28 386.23 16.19L386.23 16.19L386.23 16.19Q386.09 16.10 386.01 16.00L386.01 16.00L386.01 16.00Q385.94 15.89 385.88 15.79L385.88 15.79L385.88 15.79Q385.81 15.68 385.69 15.62L385.69 15.62L385.69 15.62Q385.59 15.58 385.52 15.43L385.52 15.43L385.52 15.43Q385.45 15.27 385.40 15.09L385.40 15.09L385.40 15.09Q385.35 14.90 385.32 14.70L385.32 14.70L385.32 14.70Q385.29 14.50 385.29 14.38ZM397.53 16.24L397.53 16.24L397.53 16.24Q396.73 16.00 396.45 15.79L396.45 15.79L396.45 15.79Q396.17 15.57 396.17 15.19L396.17 15.19L396.17 15.19Q396.17 14.77 396.37 14.01L396.37 14.01L396.37 14.01Q396.56 13.24 396.88 12.31L396.88 12.31L396.88 12.31Q397.19 11.37 397.60 10.35L397.60 10.35L397.60 10.35Q398.01 9.32 398.43 8.39L398.43 8.39L398.43 8.39Q398.85 7.45 399.25 6.67L399.25 6.67L399.25 6.67Q399.64 5.89 399.95 5.46L399.95 5.46L399.85 4.87L399.85 4.87Q400.05 4.87 400.40 4.97L400.40 4.97L400.40 4.97Q400.75 5.07 401.11 5.21L401.11 5.21L401.11 5.21Q401.46 5.35 401.74 5.49L401.74 5.49L401.74 5.49Q402.01 5.64 402.04 5.74L402.04 5.74L402.04 5.74Q401.97 6.08 401.93 6.76L401.93 6.76L401.93 6.76Q401.88 7.43 401.88 8.20L401.88 8.20L401.88 8.20Q401.88 9.73 402.00 11.19L402.00 11.19L402.00 11.19Q402.12 12.66 402.56 14.17L402.56 14.17L402.56 14.17Q402.78 13.05 403.04 11.94L403.04 11.94L403.04 11.94Q403.30 10.82 403.58 9.81L403.58 9.81L403.58 9.81Q403.86 8.79 404.14 7.92L404.14 7.92L404.14 7.92Q404.42 7.06 404.68 6.40L404.68 6.40L404.68 6.40Q404.94 5.75 405.16 5.38L405.16 5.38L405.16 5.38Q405.38 5.01 405.57 4.98L405.57 4.98L405.57 4.98Q405.72 5.01 405.90 5.10L405.90 5.10L405.90 5.10Q406.08 5.19 406.25 5.32L406.25 5.32L406.25 5.32Q406.42 5.45 406.56 5.60L406.56 5.60L406.56 5.60Q406.70 5.75 406.78 5.91L406.78 5.91L406.78 5.91Q406.34 6.09 405.89 6.76L405.89 6.76L405.89 6.76Q405.45 7.43 405.06 8.39L405.06 8.39L405.06 8.39Q404.66 9.35 404.31 10.47L404.31 10.47L404.31 10.47Q403.97 11.59 403.71 12.68L403.71 12.68L403.71 12.68Q403.45 13.76 403.31 14.69L403.31 14.69L403.31 14.69Q403.16 15.61 403.14 16.17L403.14 16.17L403.14 16.17Q403.14 16.20 403.16 16.21L403.16 16.21L403.16 16.21Q403.12 16.23 403.07 16.23L403.07 16.23L403.07 16.23Q403.02 16.23 402.98 16.23L402.98 16.23L402.98 16.23Q402.33 16.23 401.83 16.07L401.83 16.07L401.83 16.07Q401.34 15.90 401.18 15.61L401.18 15.61L401.18 15.61Q400.89 14.43 400.69 13.34L400.69 13.34L400.69 13.34Q400.50 12.25 400.37 11.16L400.37 11.16L400.37 11.16Q400.23 10.07 400.16 8.95L400.16 8.95L400.16 8.95Q400.08 7.84 400.04 6.62L400.04 6.62L400.04 6.62Q399.77 7.04 399.48 7.72L399.48 7.72L399.48 7.72Q399.18 8.40 398.90 9.21L398.90 9.21L398.90 9.21Q398.62 10.02 398.36 10.92L398.36 10.92L398.36 10.92Q398.10 11.82 397.91 12.67L397.91 12.67L397.91 12.67Q397.71 13.52 397.60 14.29L397.60 14.29L397.60 14.29Q397.49 15.05 397.49 15.61L397.49 15.61L397.49 15.61Q397.49 15.90 397.50 16.03L397.50 16.03L397.50 16.03Q397.50 16.16 397.53 16.24ZM420.60 10.72L420.60 10.72L420.60 10.72Q420.97 10.72 421.18 10.98L421.18 10.98L421.18 10.98Q421.39 11.23 421.39 11.68L421.39 11.68L421.39 11.68Q421.39 11.79 421.37 11.91L421.37 11.91L421.37 11.91Q421.36 12.03 421.33 12.11L421.33 12.11L421.33 12.11Q421.04 12.04 420.69 12.03L420.69 12.03L420.69 12.03Q420.60 12.64 420.24 13.32L420.24 13.32L420.24 13.32Q419.87 14 419.36 14.60L419.36 14.60L419.36 14.60Q418.84 15.19 418.22 15.64L418.22 15.64L418.22 15.64Q417.61 16.09 417.00 16.24L417.00 16.24L417.00 16.24Q415.13 16.20 414.27 15.27L414.27 15.27L414.27 15.27Q413.41 14.34 413.41 12.36L413.41 12.36L413.41 12.36Q413.41 10.92 413.94 9.57L413.94 9.57L413.94 9.57Q414.47 8.22 415.35 7.17L415.35 7.17L415.35 7.17Q416.23 6.12 417.38 5.48L417.38 5.48L417.38 5.48Q418.52 4.84 419.75 4.84L419.75 4.84L419.75 4.84Q420.71 4.84 421.25 5.25L421.25 5.25L421.25 5.25Q421.79 5.66 421.79 6.40L421.79 6.40L421.79 6.40Q421.79 6.89 421.56 7.31L421.56 7.31L421.56 7.31Q421.33 7.73 420.80 8.22L420.80 8.22L420.80 8.22Q420.48 8.12 420.24 7.88L420.24 7.88L420.24 7.88Q420 7.63 419.94 7.31L419.94 7.31L419.94 7.31Q420.42 6.96 420.62 6.66L420.62 6.66L420.62 6.66Q420.81 6.37 420.81 5.96L420.81 5.96L420.81 5.96Q420.81 5.32 420.04 5.32L420.04 5.32L420.04 5.32Q419.41 5.32 418.69 5.79L418.69 5.79L418.69 5.79Q417.97 6.26 417.24 7.14L417.24 7.14L417.24 7.14Q416.21 8.39 415.73 9.71L415.73 9.71L415.73 9.71Q415.25 11.03 415.25 12.68L415.25 12.68L415.25 12.68Q415.25 13.30 415.38 13.80L415.38 13.80L415.38 13.80Q415.51 14.31 415.72 14.69L415.72 14.69L415.72 14.69Q415.93 15.06 416.21 15.29L416.21 15.29L416.21 15.29Q416.50 15.51 416.84 15.54L416.84 15.54L416.84 15.54Q417.28 15.44 417.73 15.09L417.73 15.09L417.73 15.09Q418.18 14.73 418.55 14.25L418.55 14.25L418.55 14.25Q418.92 13.76 419.18 13.21L419.18 13.21L419.18 13.21Q419.44 12.66 419.50 12.15L419.50 12.15L419.50 12.15Q419.10 12.24 418.75 12.31L418.75 12.31L418.75 12.31Q418.39 12.39 418.07 12.39L418.07 12.39L418.07 12.39Q417.65 12.39 417.33 12.18L417.33 12.18L417.33 12.18Q417.02 11.97 416.91 11.61L416.91 11.61L416.91 11.61Q417.16 11.47 417.64 11.31L417.64 11.31L417.64 11.31Q418.12 11.16 418.67 11.03L418.67 11.03L418.67 11.03Q419.22 10.89 419.74 10.81L419.74 10.81L419.74 10.81Q420.27 10.72 420.60 10.72Z"></path></g></svg>